<svg width="3935" height="3696" viewBox="0 0 3935 3696" fill="none" xmlns="http://www.w3.org/2000/svg">
<path d="M1819.91 12.5H2354.09C2373.8 12.5 2390.65 18.4047 2405.18 30.1689C2419.24 41.5491 2426.69 55.4151 2428.19 72.3379L2428.26 73.1465L2428.29 73.6094L2428.36 74.0684L2495.74 516.818L2496.89 524.43L2504.21 526.82C2582.27 552.307 2653.84 581.74 2718.96 615.095L2725.93 618.663L2732.18 613.952L3073.87 356.483L3074.56 355.957L3075.18 355.339C3086.86 343.661 3102.71 337.344 3124.09 337.344C3141.39 337.344 3158.62 343.889 3176.02 358.318C3382.93 549.206 3514.22 684.641 3571.07 765.178L3571.45 765.71L3571.87 766.2C3580.55 776.114 3585.62 790.499 3585.62 810.906C3585.62 827.169 3580.26 843.091 3568.77 858.897L3568.73 858.941L3568.7 858.984C3544.83 892.402 3504.09 945.534 3446.35 1018.51C3388.57 1091.54 3345.12 1148.27 3316.07 1188.6L3311.58 1194.85L3315.13 1201.67C3356.54 1281.3 3389.13 1359.23 3412.94 1435.45L3415.27 1442.89L3422.98 1444.08L3863.33 1511.45V1511.45C3880.97 1514.17 3894.93 1522.47 3905.81 1536.75C3917.01 1551.45 3922.5 1567.65 3922.5 1585.72V2119.91C3922.5 2136.17 3917.14 2152.09 3905.64 2167.9C3894.5 2183.21 3881.23 2191.57 3865.63 2194.19L3420.6 2261.55L3413.17 2262.67L3410.68 2269.76C3380.34 2355.97 3349.31 2428.32 3317.63 2486.93L3313.96 2493.72L3318.38 2500.04C3374.8 2580.64 3460.86 2691.61 3576.42 2832.85L3576.46 2832.9L3576.49 2832.94C3591.05 2850.41 3597.66 2867.72 3597.66 2885.09C3597.66 2902.74 3591.66 2918.24 3579.21 2932.08L3578.78 2932.55L3578.4 2933.07C3535.73 2991.54 3456.96 3077.56 3341.5 3191.41C3283.91 3248.21 3236.63 3290.48 3199.58 3318.47C3181.04 3332.47 3165.33 3342.69 3152.36 3349.36C3139.14 3356.17 3129.94 3358.66 3124.09 3358.66C3108.12 3358.66 3089.75 3352.69 3068.75 3339.28L2737.17 3079.78L2730.82 3074.81L2723.68 3078.55C2653.73 3115.11 2581.4 3145.31 2506.7 3169.15L2499.03 3171.6L2498.09 3179.6C2472.41 3397.83 2449.23 3546.21 2428.62 3625.48L2428.61 3625.54L2428.59 3625.59C2423.47 3646.07 2414.67 3660.19 2402.97 3669.29C2391.26 3678.39 2375.34 3683.5 2354.09 3683.5H1819.91C1800.2 3683.5 1783.35 3677.6 1768.82 3665.83C1754.54 3654.27 1747.07 3640.14 1745.74 3622.85L1745.71 3622.39L1745.64 3621.93L1678.26 3179.18L1677.11 3171.57L1669.79 3169.18L1666.13 3167.98C1589.5 3142.77 1519.15 3113.74 1455.04 3080.91L1448.05 3077.32L1441.79 3082.07L1102.51 3339.54L1102.09 3339.86L1101.7 3340.21C1088.22 3352.34 1071.26 3358.66 1049.91 3358.66C1031.15 3358.66 1014.18 3351.44 998.589 3335.85L998.368 3335.63L998.137 3335.42L988.712 3326.88C791.941 3148.39 663.671 3017.3 602.913 2933.2C593.283 2919.42 588.375 2903.53 588.375 2885.09C588.375 2868.83 593.739 2852.91 605.234 2837.1L605.266 2837.06L605.297 2837.02C629.167 2803.6 669.907 2750.47 727.646 2677.49C785.431 2604.46 828.883 2547.73 857.926 2507.4L862.5 2501.04L858.78 2494.15C815.849 2414.65 783.328 2336.08 761.145 2258.44L758.929 2250.69L750.949 2249.51L310.643 2184.54C293.018 2181.82 279.065 2173.52 268.193 2159.25C256.991 2144.55 251.5 2128.35 251.5 2110.28V1576.09C251.5 1559.83 256.864 1543.91 268.359 1528.1C279.698 1512.51 292.296 1504.33 306.069 1501.79L753.392 1434.45L761.192 1433.28L763.489 1425.73C785.681 1352.82 816.621 1279.8 856.357 1206.69L860.058 1199.88L855.607 1193.54C791.182 1101.73 705.133 990.767 597.538 860.689L597.509 860.654L596.824 859.825C582.567 842.446 576.344 826.204 576.344 810.906C576.344 798.514 581.993 782.612 595.712 762.771C636.776 705.943 715.093 620.388 831.293 505.791C889.289 448.595 936.868 406.019 974.132 377.824C992.773 363.72 1008.56 353.423 1021.58 346.704C1034.86 339.846 1044.07 337.344 1049.91 337.344C1067.08 337.344 1085.03 343.8 1103.95 358.126L1104.85 358.814L1436.87 616.254L1443.21 621.169L1450.32 617.453C1520.27 580.889 1592.6 550.688 1667.3 526.846L1674.97 524.396L1675.91 516.398C1701.59 298.168 1724.77 149.786 1745.38 70.5205L1745.39 70.4639L1745.41 70.4062C1750.53 49.9283 1759.33 35.8115 1771.03 26.7109C1782.74 17.6054 1798.66 12.5 1819.91 12.5ZM2087 1219.5C1913.64 1219.5 1765.28 1280.97 1642.63 1403.63C1519.97 1526.28 1458.5 1674.64 1458.5 1848C1458.5 2021.36 1519.97 2169.72 1642.63 2292.37C1765.28 2415.03 1913.64 2476.5 2087 2476.5C2260.36 2476.5 2408.72 2415.03 2531.37 2292.37C2654.03 2169.72 2715.5 2021.36 2715.5 1848C2715.5 1674.64 2654.03 1526.28 2531.37 1403.63C2408.72 1280.97 2260.36 1219.5 2087 1219.5Z" fill="#51FF00" stroke="black" stroke-width="25"/>
<path d="M1698.91 12.5H2233.09C2252.8 12.5 2269.65 18.4047 2284.18 30.1689C2298.24 41.5491 2305.69 55.4151 2307.19 72.3379L2307.26 73.1465L2307.29 73.6094L2307.36 74.0684L2374.74 516.818L2375.89 524.43L2383.21 526.82C2461.27 552.307 2532.84 581.74 2597.96 615.095L2604.93 618.663L2611.18 613.952L2952.87 356.483L2953.56 355.957L2954.18 355.339C2965.86 343.661 2981.71 337.344 3003.09 337.344C3020.39 337.344 3037.62 343.889 3055.02 358.318C3261.93 549.206 3393.22 684.641 3450.07 765.178L3450.45 765.71L3450.87 766.2C3459.55 776.114 3464.62 790.499 3464.62 810.906C3464.62 827.169 3459.26 843.091 3447.77 858.897L3447.73 858.941L3447.7 858.984C3423.83 892.402 3383.09 945.534 3325.35 1018.51C3267.57 1091.54 3224.12 1148.27 3195.07 1188.6L3190.58 1194.85L3194.13 1201.67C3235.54 1281.3 3268.13 1359.23 3291.94 1435.45L3294.27 1442.89L3301.98 1444.08L3742.33 1511.45V1511.45C3759.97 1514.17 3773.93 1522.47 3784.81 1536.75C3796.01 1551.45 3801.5 1567.65 3801.5 1585.72V2119.91C3801.5 2136.17 3796.14 2152.09 3784.64 2167.9C3773.5 2183.21 3760.23 2191.57 3744.63 2194.19L3299.6 2261.55L3292.17 2262.67L3289.68 2269.76C3259.34 2355.97 3228.31 2428.32 3196.63 2486.93L3192.96 2493.72L3197.38 2500.04C3253.8 2580.64 3339.86 2691.61 3455.42 2832.85L3455.46 2832.9L3455.49 2832.94C3470.05 2850.41 3476.66 2867.72 3476.66 2885.09C3476.66 2902.74 3470.66 2918.24 3458.21 2932.08L3457.78 2932.55L3457.4 2933.07C3414.73 2991.54 3335.96 3077.56 3220.5 3191.41C3162.91 3248.21 3115.63 3290.48 3078.58 3318.47C3060.04 3332.47 3044.33 3342.69 3031.36 3349.36C3018.14 3356.17 3008.94 3358.66 3003.09 3358.66C2987.12 3358.66 2968.75 3352.69 2947.75 3339.28L2616.17 3079.78L2609.82 3074.81L2602.68 3078.55C2532.73 3115.11 2460.4 3145.31 2385.7 3169.15L2378.03 3171.6L2377.09 3179.6C2351.41 3397.83 2328.23 3546.21 2307.62 3625.48L2307.61 3625.54L2307.59 3625.59C2302.47 3646.07 2293.67 3660.19 2281.97 3669.29C2270.26 3678.39 2254.34 3683.5 2233.09 3683.5H1698.91C1679.2 3683.5 1662.35 3677.6 1647.82 3665.83C1633.54 3654.27 1626.07 3640.14 1624.74 3622.85L1624.71 3622.39L1624.64 3621.93L1557.26 3179.18L1556.11 3171.57L1548.79 3169.18L1545.13 3167.98C1468.5 3142.77 1398.15 3113.74 1334.04 3080.91L1327.05 3077.32L1320.79 3082.07L981.506 3339.54L981.089 3339.86L980.7 3340.21C967.223 3352.34 950.263 3358.66 928.906 3358.66C910.146 3358.66 893.176 3351.44 877.589 3335.85L877.368 3335.63L877.137 3335.42L867.712 3326.88C670.941 3148.39 542.671 3017.3 481.913 2933.2C472.283 2919.42 467.375 2903.53 467.375 2885.09C467.375 2868.83 472.739 2852.91 484.234 2837.1L484.266 2837.06L484.297 2837.02C508.167 2803.6 548.907 2750.47 606.646 2677.49C664.431 2604.46 707.883 2547.73 736.926 2507.4L741.5 2501.04L737.78 2494.15C694.849 2414.65 662.328 2336.08 640.145 2258.44L637.929 2250.69L629.949 2249.51L189.643 2184.54C172.018 2181.82 158.065 2173.52 147.193 2159.25C135.991 2144.55 130.5 2128.35 130.5 2110.28V1576.09C130.5 1559.83 135.864 1543.91 147.359 1528.1C158.698 1512.51 171.296 1504.33 185.069 1501.79L632.392 1434.45L640.192 1433.28L642.489 1425.73C664.681 1352.82 695.621 1279.8 735.357 1206.69L739.058 1199.88L734.607 1193.54C670.182 1101.73 584.133 990.767 476.538 860.689L476.509 860.654L475.824 859.825C461.567 842.446 455.344 826.204 455.344 810.906C455.344 798.514 460.993 782.612 474.712 762.771C515.776 705.943 594.093 620.388 710.293 505.791C768.289 448.595 815.868 406.019 853.132 377.824C871.773 363.72 887.561 353.423 900.577 346.704C913.861 339.846 923.074 337.344 928.906 337.344C946.079 337.344 964.028 343.8 982.945 358.126L983.848 358.814L1315.87 616.254L1322.21 621.169L1329.32 617.453C1399.27 580.889 1471.6 550.688 1546.3 526.846L1553.97 524.396L1554.91 516.398C1580.59 298.168 1603.77 149.786 1624.38 70.5205L1624.39 70.4639L1624.41 70.4062C1629.53 49.9283 1638.33 35.8115 1650.03 26.7109C1661.74 17.6054 1677.66 12.5 1698.91 12.5ZM1966 1219.5C1792.64 1219.5 1644.28 1280.97 1521.63 1403.63C1398.97 1526.28 1337.5 1674.64 1337.5 1848C1337.5 2021.36 1398.97 2169.72 1521.63 2292.37C1644.28 2415.03 1792.64 2476.5 1966 2476.5C2139.36 2476.5 2287.72 2415.03 2410.37 2292.37C2533.03 2169.72 2594.5 2021.36 2594.5 1848C2594.5 1674.64 2533.03 1526.28 2410.37 1403.63C2287.72 1280.97 2139.36 1219.5 1966 1219.5Z" fill="white" stroke="black" stroke-width="25"/>
<path d="M1580.91 12.5H2115.09C2134.8 12.5 2151.65 18.4047 2166.18 30.1689C2180.24 41.5491 2187.69 55.4151 2189.19 72.3379L2189.26 73.1465L2189.29 73.6094L2189.36 74.0684L2256.74 516.818L2257.89 524.43L2265.21 526.82C2343.27 552.307 2414.84 581.74 2479.96 615.095L2486.93 618.663L2493.18 613.952L2834.87 356.483L2835.56 355.957L2836.18 355.339C2847.86 343.661 2863.71 337.344 2885.09 337.344C2902.39 337.344 2919.62 343.889 2937.02 358.318C3143.93 549.206 3275.22 684.641 3332.07 765.178L3332.45 765.71L3332.87 766.2C3341.55 776.114 3346.62 790.499 3346.62 810.906C3346.62 827.169 3341.26 843.091 3329.77 858.897L3329.73 858.941L3329.7 858.984C3305.83 892.402 3265.09 945.534 3207.35 1018.51C3149.57 1091.54 3106.12 1148.27 3077.07 1188.6L3072.58 1194.85L3076.13 1201.67C3117.54 1281.3 3150.13 1359.23 3173.94 1435.45L3176.27 1442.89L3183.98 1444.08L3624.33 1511.45V1511.45C3641.97 1514.17 3655.93 1522.47 3666.81 1536.75C3678.01 1551.45 3683.5 1567.65 3683.5 1585.72V2119.91C3683.5 2136.17 3678.14 2152.09 3666.64 2167.9C3655.5 2183.21 3642.23 2191.57 3626.63 2194.19L3181.6 2261.55L3174.17 2262.67L3171.68 2269.76C3141.34 2355.97 3110.31 2428.32 3078.63 2486.93L3074.96 2493.72L3079.38 2500.04C3135.8 2580.64 3221.86 2691.61 3337.42 2832.85L3337.46 2832.9L3337.49 2832.94C3352.05 2850.41 3358.66 2867.72 3358.66 2885.09C3358.66 2902.74 3352.66 2918.24 3340.21 2932.08L3339.78 2932.55L3339.4 2933.07C3296.73 2991.54 3217.96 3077.56 3102.5 3191.41C3044.91 3248.21 2997.63 3290.48 2960.58 3318.47C2942.04 3332.47 2926.33 3342.69 2913.36 3349.36C2900.14 3356.17 2890.94 3358.66 2885.09 3358.66C2869.12 3358.66 2850.75 3352.69 2829.75 3339.28L2498.17 3079.78L2491.82 3074.81L2484.68 3078.55C2414.73 3115.11 2342.4 3145.31 2267.7 3169.15L2260.03 3171.6L2259.09 3179.6C2233.41 3397.83 2210.23 3546.21 2189.62 3625.48L2189.61 3625.54L2189.59 3625.59C2184.47 3646.07 2175.67 3660.19 2163.97 3669.29C2152.26 3678.39 2136.34 3683.5 2115.09 3683.5H1580.91C1561.2 3683.5 1544.35 3677.6 1529.82 3665.83C1515.54 3654.27 1508.07 3640.14 1506.74 3622.85L1506.71 3622.39L1506.64 3621.93L1439.26 3179.18L1438.11 3171.57L1430.79 3169.18L1427.13 3167.98C1350.5 3142.77 1280.15 3113.74 1216.04 3080.91L1209.05 3077.32L1202.79 3082.07L863.506 3339.54L863.089 3339.86L862.7 3340.21C849.223 3352.34 832.263 3358.66 810.906 3358.66C792.146 3358.66 775.176 3351.44 759.589 3335.85L759.368 3335.63L759.137 3335.42L749.712 3326.88C552.941 3148.39 424.671 3017.3 363.913 2933.2C354.283 2919.42 349.375 2903.53 349.375 2885.09C349.375 2868.83 354.739 2852.91 366.234 2837.1L366.266 2837.06L366.297 2837.02C390.167 2803.6 430.907 2750.47 488.646 2677.49C546.431 2604.46 589.883 2547.73 618.926 2507.4L623.5 2501.04L619.78 2494.15C576.849 2414.65 544.328 2336.08 522.145 2258.44L519.929 2250.69L511.949 2249.51L71.6426 2184.54C54.0184 2181.82 40.0654 2173.52 29.1934 2159.25C17.9912 2144.55 12.5 2128.35 12.5 2110.28V1576.09C12.5 1559.83 17.8638 1543.91 29.3594 1528.1C40.698 1512.51 53.2963 1504.33 67.0693 1501.79L514.392 1434.45L522.192 1433.28L524.489 1425.73C546.681 1352.82 577.621 1279.8 617.357 1206.69L621.058 1199.88L616.607 1193.54C552.182 1101.73 466.133 990.767 358.538 860.689L358.509 860.654L357.824 859.825C343.567 842.446 337.344 826.204 337.344 810.906C337.344 798.514 342.993 782.612 356.712 762.771C397.776 705.943 476.093 620.388 592.293 505.791C650.289 448.595 697.868 406.019 735.132 377.824C753.773 363.72 769.561 353.423 782.577 346.704C795.861 339.846 805.074 337.344 810.906 337.344C828.079 337.344 846.028 343.8 864.945 358.126L865.848 358.814L1197.87 616.254L1204.21 621.169L1211.32 617.453C1281.27 580.889 1353.6 550.688 1428.3 526.846L1435.97 524.396L1436.91 516.398C1462.59 298.168 1485.77 149.786 1506.38 70.5205L1506.39 70.4639L1506.41 70.4062C1511.53 49.9283 1520.33 35.8115 1532.03 26.7109C1543.74 17.6054 1559.66 12.5 1580.91 12.5ZM1848 1219.5C1674.64 1219.5 1526.28 1280.97 1403.63 1403.63C1280.97 1526.28 1219.5 1674.64 1219.5 1848C1219.5 2021.36 1280.97 2169.72 1403.63 2292.37C1526.28 2415.03 1674.64 2476.5 1848 2476.5C2021.36 2476.5 2169.72 2415.03 2292.37 2292.37C2415.03 2169.72 2476.5 2021.36 2476.5 1848C2476.5 1674.64 2415.03 1526.28 2292.37 1403.63C2169.72 1280.97 2021.36 1219.5 1848 1219.5Z" fill="white" stroke="black" stroke-width="25"/>
</svg>
