<svg width="1259" height="999" viewBox="0 0 1259 999" fill="none" xmlns="http://www.w3.org/2000/svg">
<mask id="mask0_2196_120" style="mask-type:alpha" maskUnits="userSpaceOnUse" x="52" y="3" width="1207" height="996">
<path d="M529 467L516 465.5L508 486.5V552.5L529 539V467Z" fill="#2D2C36"/>
<path d="M821.5 476L804.5 469L801.5 504V583.5L822.5 570L825 515.5L821.5 476Z" fill="#1A1A1D"/>
<path d="M524 501.5V465.5L815.5 456V467.5V495.5L813.5 517.5L811.5 562L806 587.5L799.5 608.5L785 635.5L772.5 656L750 680.5L728 697.5L706 713.5L682 719.5L668.5 716.5L642.5 703.5L623.5 692.5L597 675.5L576.5 651.5L553 616L543 598.5L530.5 565.5L524 545.5V526V501.5Z" fill="#FFE0C8"/>
<path d="M568.5 687L523.5 592.5L568.5 509L611 473L744.5 466.5H812.5L804 509L801.5 523.5C801.5 523.5 798.5 540 790 569.5C781.5 599 775 621 775 621L759.5 672.5L750.5 720L640 725L568.5 687Z" fill="#4E3D47"/>
<path d="M523.5 536L519 466H811L806.5 484.5L796.5 519.5L782.5 552L766.5 586.5C766.5 586.5 754.5 606.5 747.5 614C740.5 621.5 720 632.5 715 636.5C710 640.5 678 652 667.5 654.5C657 657 628 653 611.5 650C595 647 572.5 636.5 572.5 636.5H555L535.5 650C531.5 647.167 523.5 640.5 523.5 636.5C523.5 632.5 520.5 613.5 519 604.5L523.5 536Z" fill="#4C2E39"/>
<path d="M605 619C611.333 630.167 620.5 640.5 627.5 650C634.5 659.5 672 691.5 655.5 691.5C639 691.5 629.5 691.5 629.5 691.5M740 650C740 650 693.5 692.5 711 691.5C728.5 690.5 740 691.5 740 691.5" stroke="black" stroke-opacity="0.4" stroke-width="2" stroke-linecap="round" stroke-linejoin="round"/>
<path d="M81 819.5L52 997.5L1258.5 999L1254.5 936C1250.66 890.374 1249.96 864.503 1243 819.5C1240.39 797.282 1238.13 784.906 1232.5 763C1228.72 751.286 1226.07 744.718 1219.5 733C1216.06 727.827 1216.96 727.32 1201.5 712C1192.85 703.295 1186.71 699.021 1174.5 692L1127 667.5L1067 638.5L1024.5 617.5L973.5 595L938 579L901 562L869.5 545.5C857.871 537.509 851.823 532.221 841.5 522C837.628 516.798 836.195 516.063 830 504L821.5 476C822.289 487.203 823.445 492.136 821.5 508.5C819.09 531.675 818.194 536.459 816.512 545.434L816.5 545.5C813.8 561.442 811.241 570.042 805.5 585C800.197 599.445 796.685 607.687 790 622.5L772.5 649.5C762.005 664.994 755.729 671.707 744 681C722.217 695.018 706 704 702.5 705C699 706 686.902 710.135 664 705C654.147 701.37 652.489 702.362 620 681C606.41 671.3 598.839 665.73 586 654C574.153 640.23 570.582 634.084 563 622.5L532.5 568C526.349 555.061 522.694 547.984 519.5 532.5C517.165 521.232 515.964 514.396 515 496.5V468L454 541.5C437.118 556.434 432.556 563.94 398 582L196 673.5C170.019 688.414 155.352 698.659 129 720.5C105.357 751.114 94.8302 772.786 81 819.5Z" fill="#2D2C36"/>
<path d="M354 638.5C355.617 617.625 356.2 604.97 364.5 599C368.185 594.706 391.48 582.419 419.5 569.5C437.32 560.487 445.526 549.419 461 532.5L515 468.5C514.216 481.849 513.255 490.681 515 497.5C516.927 532.914 521.703 538.026 527.5 558C531.17 566.165 533.405 570.89 540 581.5C552.993 605.967 558.67 614.503 569.5 632C582.141 650.646 585.786 652.578 594.5 661.5C609.542 673.933 616.499 679.13 626.5 685.5C642.012 695.486 647.768 698.201 658.5 703.5C681.785 710.367 682.481 707.791 692 707.5C704.226 705.457 709.118 702.734 718 698C718 698 735.85 688.5 743 683C750.15 677.5 762 664 762 664C750.092 688.702 743.415 701.735 731.5 715.5C715.085 740.953 703.86 753.798 680 774C647.334 801.805 626.393 815.421 587.5 834.5C559.386 849.549 542.301 853.869 511 859C462.386 861.033 445.823 852.062 410 842C367.121 817.201 366.992 805.469 358 788.5C351.069 755.768 348.068 737.347 349 704C349.809 678.219 351.573 663.996 354 638.5Z" fill="#1A1A1D" stroke="#1D1D23"/>
<path d="M471 343.5C471 343.5 476 364.5 478 370C480 375.5 493 397 494 400.5C495 404 507 447.5 507 447.5L501.5 444.5C501.5 444.5 485.5 434.5 482 430.5C478.5 426.5 472.5 418 471 415.5C469.5 413 462.5 398.5 461 394.5C459.5 390.5 457.5 385 455.5 379C453.5 373 453 355 453 355V337C453 337 454 330.5 457.5 328.5C461 326.5 463 326.5 465 328.5C467 330.5 471 343.5 471 343.5Z" fill="#FFE5CE"/>
<path d="M459 341C458.5 341.5 456 351.5 456 351.5C456 351.5 457.5 349 458 348.5C458.5 348 459.5 346.5 460.5 346.5H463C464 346.5 465 348 465 348L466.5 350.5L469 356.5L472.5 366L471.5 362L468.5 353.5C468.5 353.5 466.5 347.5 466 346.5C465.5 345.5 463 342.5 463 342.5C463 342.5 461 340.5 460.5 340.5C460 340.5 459.5 340.5 459 341Z" fill="#2A2933"/>
<path d="M481 398C481 398 478 398 477 400.5C476 403 476 413.5 476 413.5" stroke="#322A2E" stroke-width="0.5" stroke-linecap="round"/>
<path d="M847 338.529C845 342.529 840.5 360.529 840.5 360.529L829.5 399.529L821 443C821 443 834 427.529 840.5 416C847 404.471 851 392.5 851 392.5C851 392.5 858 378.5 858 373.5C858 368.5 860 356.029 860 356.029C860 356.029 860.5 338.029 860 335.529C859.5 333.029 857 329.529 855 329.029C853 328.529 849 334.529 847 338.529Z" fill="#FFE5CE"/>
<path d="M845.7 360.091L844.5 366.667V376.061L845.7 367.606L846.3 363.848L846.9 361.03L848.1 357.273L849.3 354.455L851.1 350.697L853.5 346L852.9 346.939L850.5 350.697L847.5 355.394L845.7 360.091Z" fill="#29393C"/>
<path d="M844.5 377V376.061M844.5 376.061V366.667L845.7 360.091L847.5 355.394L850.5 350.697L852.9 346.939L853.5 346L851.1 350.697L849.3 354.455L848.1 357.273L846.9 361.03L846.3 363.848L845.7 367.606L844.5 376.061Z" stroke="black" stroke-width="0.5"/>
<path d="M488.5 393.045L466.5 292.045L462 244.545C465.667 226.379 477 188.445 493 182.045C509 175.645 545 164.712 561 160.045C595 151.045 666.6 132.145 681 128.545C695.4 124.945 765.333 140.045 798.5 148.045L849 182.045L862.5 275.545L853 312.545L839.5 352.545L842 373.545L811 462.545C811 462.545 800 510.045 798.5 513.545C797 517.045 757 574.545 757 574.545L732 611.045C732 611.045 723.5 622.545 720 625.545C716.5 628.545 665 625.545 665 625.545C665 625.545 647.5 623.045 640.5 619.545C633.5 616.045 610.5 591.545 610.5 591.545L556.5 533.545L535 510.045L498.5 411.545L488.5 393.045Z" fill="#FFE5CE"/>
<path d="M435 144.616C431 177.616 450.802 337.73 452.5 335.616C454.199 333.501 460.308 330.223 463 335.616L476.5 372.616C476.5 372.616 479 322.116 479 320.116C479 318.116 476 250.616 482 253.116C488 255.616 508 274.116 508 274.116C508 274.116 497.5 256.116 501 244.616C504.5 233.116 507.5 224.116 514.5 222.616C521.5 221.116 528 233.616 549 232.116C570 230.616 609 222.616 609 222.616C609 222.616 602 221.116 592.5 219.616C583 218.116 577.5 208.116 592.5 202.116C607.5 196.116 702.479 181.82 717.5 183.616C732.521 185.412 736.154 195.784 727.5 208.116C718.846 220.448 703 226.116 703 226.116C703 226.116 756 227.116 772 211.616C788 196.116 788 217.616 780 222.616C772 227.616 757.5 232.116 757.5 232.116C777.206 232.765 788.174 233.525 809.5 226.116C812.019 227.709 843.193 201.187 845 200.116C846.807 199.045 854.668 233.943 856.5 259.116C858.89 289.783 855.236 304.142 852 331.616L859 324.116C873.141 304.273 886.204 284.578 898 243.116C898 243.116 904.5 202.116 904.5 200.116C904.5 198.116 908.5 172.116 910.5 165.616C912.488 159.156 904.106 168.004 895.169 177.438L895 177.616C886 187.116 903.5 134.116 904.5 130.616C905.5 127.116 910.5 105.616 911 101.616C911.5 97.6158 893.5 105.116 875.5 99.1158C857.5 93.1158 878 80.1158 888 77.1158C898 74.1158 857 80.1158 849 81.6158C841 83.1158 816 62.1159 810 58.6158C804 55.1158 752.5 32.1158 749.5 31.1158C746.5 30.1158 708.5 21.6158 692 19.6158C675.5 17.6158 682.5 9.61583 692 5.11582C701.5 0.615816 672 4.61582 669 5.11582C666 5.61582 632.5 16.1158 631 17.1158C629.5 18.1158 595.954 20.9911 588 23.6158C588 23.6158 572 27.1158 553.5 36.6158C535 46.1158 548 24.1158 546 23.6158C544 23.1158 510.5 53.6158 510.5 53.6158C505.607 55.3348 439 111.616 435 144.616Z" fill="#2C2B3D"/>
<path d="M519 307.5C500.063 322.327 498.543 331.921 488.5 348C500.014 337.334 515 327.5 518.5 325.5C522 323.5 537.529 316.454 547 316H576C580.5 316 633.5 314.5 637.5 312.5C641.5 310.5 651 283 651 283C651 283 610.986 296.289 604.5 296.5C598.014 296.711 556 296.5 556 296.5C541.776 297.755 533.924 296.805 519 307.5Z" fill="#2C2B3D"/>
<path d="M700.5 305C699.5 301.5 706 285 706 285C706 285 721 293 728.5 293.5C736 294 753 293.5 753 293.5C762.554 291.727 778.5 289.5 781 289C783.5 288.5 799 286.5 801.5 287.5C804 288.5 818 294.5 820.5 296.5C823 298.5 836.5 306.5 837.5 310C838.5 313.5 841.5 326 841.5 326C841.5 326 823.5 314.5 820.5 312.5C817.5 310.5 799.5 305 793 305C786.5 305 771 309 766 310C761 311 721.5 312.5 717.5 312.5C713.5 312.5 701.5 308.5 700.5 305Z" fill="#2C2B3D"/>
<path d="M519 307.5C500.063 322.327 498.543 331.921 488.5 348C500.014 337.334 515 327.5 518.5 325.5C522 323.5 537.529 316.454 547 316H576C580.5 316 633.5 314.5 637.5 312.5C641.5 310.5 651 283 651 283C651 283 610.986 296.289 604.5 296.5C598.014 296.711 556 296.5 556 296.5C541.776 297.755 533.924 296.805 519 307.5Z" stroke="#2D2C3C"/>
<path d="M700.5 305C699.5 301.5 706 285 706 285C706 285 721 293 728.5 293.5C736 294 753 293.5 753 293.5C762.554 291.727 778.5 289.5 781 289C783.5 288.5 799 286.5 801.5 287.5C804 288.5 818 294.5 820.5 296.5C823 298.5 836.5 306.5 837.5 310C838.5 313.5 841.5 326 841.5 326C841.5 326 823.5 314.5 820.5 312.5C817.5 310.5 799.5 305 793 305C786.5 305 771 309 766 310C761 311 721.5 312.5 717.5 312.5C713.5 312.5 701.5 308.5 700.5 305Z" stroke="#2D2C3C"/>
<path d="M659.5 270C675.071 278.41 671.97 288.104 665 306" stroke="#2C2B3D" stroke-linecap="round"/>
<path d="M490.5 381C488.5 379.5 471.5 313 471.5 313L477.5 368L507 448.5C507 448.5 510.263 446.43 509.5 441.5C508.926 437.789 505.986 432.808 505 428.5C503.009 419.8 499.678 411.929 502 411C507 409 509 419 511 423C513 427 519.5 454 525 462.5C530.5 471 543.5 473.5 549.5 474C552.394 474.241 562.734 475.694 573 476C584.016 476.328 594.947 476 596.5 476C599.5 476 628 473 631 471.5C634 470 641 466 644.5 460.5C648 455 656 423.5 657.5 416.5C659 409.5 681 409.5 683 416.5C683.769 419.192 686.389 436.672 688.5 444.5C691.879 457.029 700.076 461.23 705 464C713 468.5 755.5 468 755.5 468C755.5 468 776.352 467.976 792.5 465C802.567 463.145 809.388 457.496 811.5 455C817 448.5 834 403.5 834 403.5C834 403.5 843.5 376.5 844.5 374C845.5 371.5 842 362.5 841 360.5C840 358.5 844.5 344.5 844.5 341.5C844.5 338.5 852.5 318.5 852.5 318.5C852.5 318.5 842.5 330.5 841 335C839.5 339.5 834.5 366.5 832.5 370C831.893 371.063 820.47 371.622 802 372.5C790.64 373.04 777.871 373.53 764.5 374C751.36 374.462 739.121 375.017 727.5 375.412C706.855 376.113 691.5 379 690 382C688.5 385 686.5 389 683 391C679.5 393 658.5 392.5 654.5 391C650.5 389.5 652 386.5 648.5 384C645 381.5 568 384 565.5 384C563 384 492.5 382.5 490.5 381Z" fill="#2C2B3D"/>
<path d="M542.5 394.5C541 394.5 528.5 397 527.5 397.5L527.5 397.5C526.5 398 521.5 400.5 519.5 403C517.5 405.5 519.5 417 519.5 417L523 433L527.5 447C527.5 447 531.5 457.5 533.5 459C535.5 460.5 540.5 463 545.5 464C550.5 465 565.5 467 569 467H589C589 467 609.5 466.5 613.5 465.5C617.5 464.5 630 462 632.5 460C635 458 638.5 453 640 450C641.5 447 645 433.5 645 430C645 426.5 646 418 645.5 410.5C645 403 644.5 401.5 644 399.5C643.5 397.5 637 394.5 634 394.5H617.5H592H560H542.5Z" fill="url(#paint0_linear_2196_120)"/>
<path d="M699.5 392.5C698 395 697 402.5 697 402.5C697 402.5 696 412.5 696 415.5V427.5C696.313 432.34 696.549 434.17 697 437C697.606 440.013 697.933 441.348 698.5 443C699.934 446.388 700.746 448.646 703 451C705.161 453.113 706.369 454.199 708.5 455.5C711.389 457.1 713.022 457.789 716 458L729.5 459L742.5 459.5H755L771.5 459L784 458L790.5 457C790.5 457 797.5 455 798.5 454.5C799.5 454 804.5 450.5 805.5 449.5C806.5 448.5 810 442.5 810 442.5L814 432.5L818.5 418.5L821.5 408L824 396V389.5C824 388 823 386 823 386C823 386 821 384 819 383C817 382 808 382 808 382L783.5 382L760.5 383L744 383.5L722.5 385C722.5 385 706.5 387 705.5 387.5C704.5 388 701 390 699.5 392.5Z" fill="url(#paint1_linear_2196_120)"/>
<path d="M656.393 526.797L656.365 526.805L656.338 526.814L638.274 533.097C638.243 533.103 638.201 533.111 638.148 533.121C638.023 533.146 637.838 533.182 637.604 533.227C637.137 533.316 636.474 533.44 635.69 533.583C634.121 533.869 632.076 534.224 630.161 534.509C629.943 534.541 629.727 534.57 629.515 534.6C630.858 534.155 632.468 533.647 634.282 533.096C638.836 531.711 644.641 530.047 650.641 528.363C654.098 527.393 657.625 526.416 661.013 525.481L656.393 526.797ZM677.539 520.934C677.769 520.87 677.994 520.808 678.211 520.748L680.444 520.121C681.477 519.827 682.837 519.563 684.447 519.325L677.539 520.934Z" stroke="black" stroke-width="2"/>
<path d="M532.5 362L522 354L526 353H542.5L558.5 354C562.167 354.5 569.8 355.5 571 355.5H587L599.5 354H618.5L621.5 358.5L623.5 365V370L618.5 372L600.5 373H584H571L556 372L543.5 368L532.5 362Z" fill="#FEF7EF"/>
<path d="M548.5 351L512.5 351.5C512.5 351.5 526 356 526.5 356H530H537.5H546.5H560C560 356 560.924 357.595 562 358.5C563.076 359.405 563.062 359.379 564 360C565.604 361.061 567.5 361.5 569 362C570.5 362.5 572.5 362.5 572.5 362.5H577H582C582 362.5 587 362.5 588.5 362C590 361.5 593 361 594.5 360C596 359 598.5 357 598.5 357L601 355.5C601 355.5 607.5 355 610 355C612.5 355 614 355.5 615.5 356C617 356.5 616 356 618 357C620 358 620 359 620.5 360C621 361 621.5 362.5 621.5 363.5V367L619 370.5L614.5 371L607.5 371.5H598.5H581H572.5H565.5H560L555 370.5L550 369L544 366.5L537.5 363.5L532.5 360.5L526 356L520.5 354.5L523.5 357L532.5 363L541 367.5L549.5 371C549.5 371 554.5 372.5 557 373C559.5 373.5 569.5 373.5 569.5 373.5H584.5H601C601 373.5 620.5 373 622 372.5C623.5 372 632.5 370.5 633 370.5C633.5 370.5 633.5 369.5 633 369C632.5 368.5 629 368 629 368C629 368 626 367.5 625.5 367C625 366.5 625 365.5 625 364.5C625 363.5 624.5 361 624.5 361C624.5 361 623 357 623 356C623 355 624.5 355 625.5 355H633L632.5 354C632.5 354 632 353 631.5 352.5C631 352 630.449 351.563 629.5 351.5H625.5H591.5L548.5 351Z" fill="#3E2727"/>
<path d="M509 353.5L524.5 349.5C524.5 349.5 537.5 345.5 544 343.5C550.5 341.5 558.5 339.5 558.5 339.5L576 336C576 336 584 334.5 586 334C588 333.5 598.5 332 598.5 332C600.667 331.5 606.2 331 607 331C607.8 331 612 331 614 331H621C621 331 618 331 616.5 332.5C615 334 619 340.5 619 340.5L622.5 345.5C622.5 345.5 624.945 348.125 626.5 349.5C627.759 350.612 630 352 630 352" stroke="black" stroke-opacity="0.8"/>
<path d="M712.5 354L709.5 364L712.5 367.5L734.5 371.5H753L767 369L783 365.5L794.5 360L801.5 355L801 351.5L794.5 350H775H758L737 354H712.5Z" fill="#FEF7EF"/>
<path d="M709 356.5C708.5 359.5 705 366.5 705 366.5L712.5 366V363V360.5C712.5 359.5 713.5 358 714 357.5C714.5 357 716 356 717 355.5C718 355 722.271 354.5 722.271 354.5C722.271 354.5 726.5 354 727 354.5L728 355.5L730 357.5C730 357.5 732.5 360 734.5 360H737H740.5H745.5C747.5 360 750 359.5 750 359.5C750 359.5 753 359 755 358.5C757 358 759 356.5 759 356.5C759 356.5 763 354 763.5 353.5C764 353 764.5 351 765 350.5C765.5 350 766.5 350 766.5 350H769.5H777.5H791H795.5C795.5 350 796 350 798 350.5C800 351 799.5 352 799.5 352C799.5 352 799 353.5 798 355C797 356.5 794 358 794 358L788 361L781 364L776 365.5L770 367L764.215 368L760 368.5C760 368.5 757.5 369 754.5 369.5C751.5 370 752.5 370 749 370.5C745.5 371 744.5 371 741 371H735.5H732C730.5 371 726.5 370.5 726.5 370.5L720.5 369C720.5 369 716 367 714 366.5C712 366 707 366.5 707 366.5C707 366.5 710.5 367.5 712.5 368C714.5 368.5 717.604 370.015 721.5 371C725.259 371.785 727.471 372.083 731.5 372.5C735.486 372.611 737.733 372.661 742 372.5C744.992 372.42 746.742 372.311 750 372L764 370L775 368C779.397 366.893 781.826 366.18 786 364.5C789.123 363.051 790.818 362.164 793.662 360.677L794 360.5C795.937 359.527 797.521 358.603 801 356.5C801 356.5 808 351 810 349.5C812 348 817.5 347 817.5 347H801H786H771H756L738 348L717.5 349.5L703.5 351C703.5 351 709.5 353.5 709 356.5Z" fill="#3D2626"/>
<path d="M707.5 352C707.5 352 722.271 341.5 727.741 338.5C733.212 335.5 744.7 331.5 744.7 331.5C744.7 331.5 758.924 327 761.112 326.5C763.3 326 776.429 323 778.618 323C780.806 323 792.294 323 792.294 323C792.294 323 787.918 324 786.276 324.5C784.635 325 790.653 328.5 792.294 330C793.935 331.5 797.218 337 797.218 337L799.406 342L800.5 346" stroke="black" stroke-opacity="0.8"/>
<path d="M688.5 341L702.5 295L702 301.5L689.5 341L684.5 362L688.5 341Z" fill="#2C2B3D"/>
<path d="M683 379.5L684.5 362L683.5 380V393L684 424L684.5 447V455.5L685.5 458L686.5 461L685.5 465L682 470.5L678.5 475.5L674 483.5C674 483.5 677 476.5 678 475L682 469C682 469 684.5 464 684.5 462C684.5 460 683 458 683 456V450.5V442.5V429V392.5V379.5Z" fill="#2C2B3D"/>
</mask>
<g mask="url(#mask0_2196_120)">
<rect x="52" y="3" width="1285" height="1036" fill="#C8F030"/>
</g>
<mask id="mask1_2196_120" style="mask-type:alpha" maskUnits="userSpaceOnUse" x="19" y="3" width="1207" height="996">
<path d="M496 467L483 465.5L475 486.5V552.5L496 539V467Z" fill="#2D2C36"/>
<path d="M788.5 476L771.5 469L768.5 504V583.5L789.5 570L792 515.5L788.5 476Z" fill="#1A1A1D"/>
<path d="M491 501.5V465.5L782.5 456V467.5V495.5L780.5 517.5L778.5 562L773 587.5L766.5 608.5L752 635.5L739.5 656L717 680.5L695 697.5L673 713.5L649 719.5L635.5 716.5L609.5 703.5L590.5 692.5L564 675.5L543.5 651.5L520 616L510 598.5L497.5 565.5L491 545.5V526V501.5Z" fill="#FFE0C8"/>
<path d="M535.5 687L490.5 592.5L535.5 509L578 473L711.5 466.5H779.5L771 509L768.5 523.5C768.5 523.5 765.5 540 757 569.5C748.5 599 742 621 742 621L726.5 672.5L717.5 720L607 725L535.5 687Z" fill="#4E3D47"/>
<path d="M490.5 536L486 466H778L773.5 484.5L763.5 519.5L749.5 552L733.5 586.5C733.5 586.5 721.5 606.5 714.5 614C707.5 621.5 687 632.5 682 636.5C677 640.5 645 652 634.5 654.5C624 657 595 653 578.5 650C562 647 539.5 636.5 539.5 636.5H522L502.5 650C498.5 647.167 490.5 640.5 490.5 636.5C490.5 632.5 487.5 613.5 486 604.5L490.5 536Z" fill="#4C2E39"/>
<path d="M572 619C578.333 630.167 587.5 640.5 594.5 650C601.5 659.5 639 691.5 622.5 691.5C606 691.5 596.5 691.5 596.5 691.5M707 650C707 650 660.5 692.5 678 691.5C695.5 690.5 707 691.5 707 691.5" stroke="black" stroke-opacity="0.4" stroke-width="2" stroke-linecap="round" stroke-linejoin="round"/>
<path d="M48 819.5L19 997.5L1225.5 999L1221.5 936C1217.66 890.374 1216.96 864.503 1210 819.5C1207.39 797.282 1205.13 784.906 1199.5 763C1195.72 751.286 1193.07 744.718 1186.5 733C1183.06 727.827 1183.96 727.32 1168.5 712C1159.85 703.295 1153.71 699.021 1141.5 692L1094 667.5L1034 638.5L991.5 617.5L940.5 595L905 579L868 562L836.5 545.5C824.871 537.509 818.823 532.221 808.5 522C804.628 516.798 803.195 516.063 797 504L788.5 476C789.289 487.203 790.445 492.136 788.5 508.5C786.09 531.675 785.194 536.459 783.512 545.434L783.5 545.5C780.8 561.442 778.241 570.042 772.5 585C767.197 599.445 763.685 607.687 757 622.5L739.5 649.5C729.005 664.994 722.729 671.707 711 681C689.217 695.018 673 704 669.5 705C666 706 653.902 710.135 631 705C621.147 701.37 619.489 702.362 587 681C573.41 671.3 565.839 665.73 553 654C541.153 640.23 537.582 634.084 530 622.5L499.5 568C493.349 555.061 489.694 547.984 486.5 532.5C484.165 521.232 482.964 514.396 482 496.5V468L421 541.5C404.118 556.434 399.556 563.94 365 582L163 673.5C137.019 688.414 122.352 698.659 96 720.5C72.3569 751.114 61.8302 772.786 48 819.5Z" fill="#2D2C36"/>
<path d="M321 638.5C322.617 617.625 323.2 604.97 331.5 599C335.185 594.706 358.48 582.419 386.5 569.5C404.32 560.487 412.526 549.419 428 532.5L482 468.5C481.216 481.849 480.255 490.681 482 497.5C483.927 532.914 488.703 538.026 494.5 558C498.17 566.165 500.405 570.89 507 581.5C519.993 605.967 525.67 614.503 536.5 632C549.141 650.646 552.786 652.578 561.5 661.5C576.542 673.933 583.499 679.13 593.5 685.5C609.012 695.486 614.768 698.201 625.5 703.5C648.785 710.367 649.481 707.791 659 707.5C671.226 705.457 676.118 702.734 685 698C685 698 702.85 688.5 710 683C717.15 677.5 729 664 729 664C717.092 688.702 710.415 701.735 698.5 715.5C682.085 740.953 670.86 753.798 647 774C614.334 801.805 593.393 815.421 554.5 834.5C526.386 849.549 509.301 853.869 478 859C429.386 861.033 412.823 852.062 377 842C334.121 817.201 333.992 805.469 325 788.5C318.069 755.768 315.068 737.347 316 704C316.809 678.219 318.573 663.996 321 638.5Z" fill="#1A1A1D" stroke="#1D1D23"/>
<path d="M438 343.5C438 343.5 443 364.5 445 370C447 375.5 460 397 461 400.5C462 404 474 447.5 474 447.5L468.5 444.5C468.5 444.5 452.5 434.5 449 430.5C445.5 426.5 439.5 418 438 415.5C436.5 413 429.5 398.5 428 394.5C426.5 390.5 424.5 385 422.5 379C420.5 373 420 355 420 355V337C420 337 421 330.5 424.5 328.5C428 326.5 430 326.5 432 328.5C434 330.5 438 343.5 438 343.5Z" fill="#FFE5CE"/>
<path d="M426 341C425.5 341.5 423 351.5 423 351.5C423 351.5 424.5 349 425 348.5C425.5 348 426.5 346.5 427.5 346.5H430C431 346.5 432 348 432 348L433.5 350.5L436 356.5L439.5 366L438.5 362L435.5 353.5C435.5 353.5 433.5 347.5 433 346.5C432.5 345.5 430 342.5 430 342.5C430 342.5 428 340.5 427.5 340.5C427 340.5 426.5 340.5 426 341Z" fill="#2A2933"/>
<path d="M448 398C448 398 445 398 444 400.5C443 403 443 413.5 443 413.5" stroke="#322A2E" stroke-width="0.5" stroke-linecap="round"/>
<path d="M814 338.529C812 342.529 807.5 360.529 807.5 360.529L796.5 399.529L788 443C788 443 801 427.529 807.5 416C814 404.471 818 392.5 818 392.5C818 392.5 825 378.5 825 373.5C825 368.5 827 356.029 827 356.029C827 356.029 827.5 338.029 827 335.529C826.5 333.029 824 329.529 822 329.029C820 328.529 816 334.529 814 338.529Z" fill="#FFE5CE"/>
<path d="M812.7 360.091L811.5 366.667V376.061L812.7 367.606L813.3 363.848L813.9 361.03L815.1 357.273L816.3 354.455L818.1 350.697L820.5 346L819.9 346.939L817.5 350.697L814.5 355.394L812.7 360.091Z" fill="#29393C"/>
<path d="M811.5 377V376.061M811.5 376.061V366.667L812.7 360.091L814.5 355.394L817.5 350.697L819.9 346.939L820.5 346L818.1 350.697L816.3 354.455L815.1 357.273L813.9 361.03L813.3 363.848L812.7 367.606L811.5 376.061Z" stroke="black" stroke-width="0.5"/>
<path d="M455.5 393.045L433.5 292.045L429 244.545C432.667 226.379 444 188.445 460 182.045C476 175.645 512 164.712 528 160.045C562 151.045 633.6 132.145 648 128.545C662.4 124.945 732.333 140.045 765.5 148.045L816 182.045L829.5 275.545L820 312.545L806.5 352.545L809 373.545L778 462.545C778 462.545 767 510.045 765.5 513.545C764 517.045 724 574.545 724 574.545L699 611.045C699 611.045 690.5 622.545 687 625.545C683.5 628.545 632 625.545 632 625.545C632 625.545 614.5 623.045 607.5 619.545C600.5 616.045 577.5 591.545 577.5 591.545L523.5 533.545L502 510.045L465.5 411.545L455.5 393.045Z" fill="#FFE5CE"/>
<path d="M402 144.616C398 177.616 417.802 337.73 419.5 335.616C421.199 333.501 427.308 330.223 430 335.616L443.5 372.616C443.5 372.616 446 322.116 446 320.116C446 318.116 443 250.616 449 253.116C455 255.616 475 274.116 475 274.116C475 274.116 464.5 256.116 468 244.616C471.5 233.116 474.5 224.116 481.5 222.616C488.5 221.116 495 233.616 516 232.116C537 230.616 576 222.616 576 222.616C576 222.616 569 221.116 559.5 219.616C550 218.116 544.5 208.116 559.5 202.116C574.5 196.116 669.479 181.82 684.5 183.616C699.521 185.412 703.154 195.784 694.5 208.116C685.846 220.448 670 226.116 670 226.116C670 226.116 723 227.116 739 211.616C755 196.116 755 217.616 747 222.616C739 227.616 724.5 232.116 724.5 232.116C744.206 232.765 755.174 233.525 776.5 226.116C779.019 227.709 810.193 201.187 812 200.116C813.807 199.045 821.668 233.943 823.5 259.116C825.89 289.783 822.236 304.142 819 331.616L826 324.116C840.141 304.273 853.204 284.578 865 243.116C865 243.116 871.5 202.116 871.5 200.116C871.5 198.116 875.5 172.116 877.5 165.616C879.488 159.156 871.106 168.004 862.169 177.438L862 177.616C853 187.116 870.5 134.116 871.5 130.616C872.5 127.116 877.5 105.616 878 101.616C878.5 97.6158 860.5 105.116 842.5 99.1158C824.5 93.1158 845 80.1158 855 77.1158C865 74.1158 824 80.1158 816 81.6158C808 83.1158 783 62.1159 777 58.6158C771 55.1158 719.5 32.1158 716.5 31.1158C713.5 30.1158 675.5 21.6158 659 19.6158C642.5 17.6158 649.5 9.61583 659 5.11582C668.5 0.615816 639 4.61582 636 5.11582C633 5.61582 599.5 16.1158 598 17.1158C596.5 18.1158 562.954 20.9911 555 23.6158C555 23.6158 539 27.1158 520.5 36.6158C502 46.1158 515 24.1158 513 23.6158C511 23.1158 477.5 53.6158 477.5 53.6158C472.607 55.3348 406 111.616 402 144.616Z" fill="#2C2B3D"/>
<path d="M486 307.5C467.063 322.327 465.543 331.921 455.5 348C467.014 337.334 482 327.5 485.5 325.5C489 323.5 504.529 316.454 514 316H543C547.5 316 600.5 314.5 604.5 312.5C608.5 310.5 618 283 618 283C618 283 577.986 296.289 571.5 296.5C565.014 296.711 523 296.5 523 296.5C508.776 297.755 500.924 296.805 486 307.5Z" fill="#2C2B3D"/>
<path d="M667.5 305C666.5 301.5 673 285 673 285C673 285 688 293 695.5 293.5C703 294 720 293.5 720 293.5C729.554 291.727 745.5 289.5 748 289C750.5 288.5 766 286.5 768.5 287.5C771 288.5 785 294.5 787.5 296.5C790 298.5 803.5 306.5 804.5 310C805.5 313.5 808.5 326 808.5 326C808.5 326 790.5 314.5 787.5 312.5C784.5 310.5 766.5 305 760 305C753.5 305 738 309 733 310C728 311 688.5 312.5 684.5 312.5C680.5 312.5 668.5 308.5 667.5 305Z" fill="#2C2B3D"/>
<path d="M486 307.5C467.063 322.327 465.543 331.921 455.5 348C467.014 337.334 482 327.5 485.5 325.5C489 323.5 504.529 316.454 514 316H543C547.5 316 600.5 314.5 604.5 312.5C608.5 310.5 618 283 618 283C618 283 577.986 296.289 571.5 296.5C565.014 296.711 523 296.5 523 296.5C508.776 297.755 500.924 296.805 486 307.5Z" stroke="#2D2C3C"/>
<path d="M667.5 305C666.5 301.5 673 285 673 285C673 285 688 293 695.5 293.5C703 294 720 293.5 720 293.5C729.554 291.727 745.5 289.5 748 289C750.5 288.5 766 286.5 768.5 287.5C771 288.5 785 294.5 787.5 296.5C790 298.5 803.5 306.5 804.5 310C805.5 313.5 808.5 326 808.5 326C808.5 326 790.5 314.5 787.5 312.5C784.5 310.5 766.5 305 760 305C753.5 305 738 309 733 310C728 311 688.5 312.5 684.5 312.5C680.5 312.5 668.5 308.5 667.5 305Z" stroke="#2D2C3C"/>
<path d="M626.5 270C642.071 278.41 638.97 288.104 632 306" stroke="#2C2B3D" stroke-linecap="round"/>
<path d="M457.5 381C455.5 379.5 438.5 313 438.5 313L444.5 368L474 448.5C474 448.5 477.263 446.43 476.5 441.5C475.926 437.789 472.986 432.808 472 428.5C470.009 419.8 466.678 411.929 469 411C474 409 476 419 478 423C480 427 486.5 454 492 462.5C497.5 471 510.5 473.5 516.5 474C519.394 474.241 529.734 475.694 540 476C551.016 476.328 561.947 476 563.5 476C566.5 476 595 473 598 471.5C601 470 608 466 611.5 460.5C615 455 623 423.5 624.5 416.5C626 409.5 648 409.5 650 416.5C650.769 419.192 653.389 436.672 655.5 444.5C658.879 457.029 667.076 461.23 672 464C680 468.5 722.5 468 722.5 468C722.5 468 743.352 467.976 759.5 465C769.567 463.145 776.388 457.496 778.5 455C784 448.5 801 403.5 801 403.5C801 403.5 810.5 376.5 811.5 374C812.5 371.5 809 362.5 808 360.5C807 358.5 811.5 344.5 811.5 341.5C811.5 338.5 819.5 318.5 819.5 318.5C819.5 318.5 809.5 330.5 808 335C806.5 339.5 801.5 366.5 799.5 370C798.893 371.063 787.47 371.622 769 372.5C757.64 373.04 744.871 373.53 731.5 374C718.36 374.462 706.121 375.017 694.5 375.412C673.855 376.113 658.5 379 657 382C655.5 385 653.5 389 650 391C646.5 393 625.5 392.5 621.5 391C617.5 389.5 619 386.5 615.5 384C612 381.5 535 384 532.5 384C530 384 459.5 382.5 457.5 381Z" fill="#2C2B3D"/>
<path d="M509.5 394.5C508 394.5 495.5 397 494.5 397.5L494.5 397.5C493.5 398 488.5 400.5 486.5 403C484.5 405.5 486.5 417 486.5 417L490 433L494.5 447C494.5 447 498.5 457.5 500.5 459C502.5 460.5 507.5 463 512.5 464C517.5 465 532.5 467 536 467H556C556 467 576.5 466.5 580.5 465.5C584.5 464.5 597 462 599.5 460C602 458 605.5 453 607 450C608.5 447 612 433.5 612 430C612 426.5 613 418 612.5 410.5C612 403 611.5 401.5 611 399.5C610.5 397.5 604 394.5 601 394.5H584.5H559H527H509.5Z" fill="url(#paint2_linear_2196_120)"/>
<path d="M666.5 392.5C665 395 664 402.5 664 402.5C664 402.5 663 412.5 663 415.5V427.5C663.313 432.34 663.549 434.17 664 437C664.606 440.013 664.933 441.348 665.5 443C666.934 446.388 667.746 448.646 670 451C672.161 453.113 673.369 454.199 675.5 455.5C678.389 457.1 680.022 457.789 683 458L696.5 459L709.5 459.5H722L738.5 459L751 458L757.5 457C757.5 457 764.5 455 765.5 454.5C766.5 454 771.5 450.5 772.5 449.5C773.5 448.5 777 442.5 777 442.5L781 432.5L785.5 418.5L788.5 408L791 396V389.5C791 388 790 386 790 386C790 386 788 384 786 383C784 382 775 382 775 382L750.5 382L727.5 383L711 383.5L689.5 385C689.5 385 673.5 387 672.5 387.5C671.5 388 668 390 666.5 392.5Z" fill="url(#paint3_linear_2196_120)"/>
<path d="M623.393 526.797L623.365 526.805L623.338 526.814L605.274 533.097C605.243 533.103 605.201 533.111 605.148 533.121C605.023 533.146 604.838 533.182 604.604 533.227C604.137 533.316 603.474 533.44 602.69 533.583C601.121 533.869 599.076 534.224 597.161 534.509C596.943 534.541 596.727 534.57 596.515 534.6C597.858 534.155 599.468 533.647 601.282 533.096C605.836 531.711 611.641 530.047 617.641 528.363C621.098 527.393 624.625 526.416 628.013 525.481L623.393 526.797ZM644.539 520.934C644.769 520.87 644.994 520.808 645.211 520.748L647.444 520.121C648.477 519.827 649.837 519.563 651.447 519.325L644.539 520.934Z" stroke="black" stroke-width="2"/>
<path d="M499.5 362L489 354L493 353H509.5L525.5 354C529.167 354.5 536.8 355.5 538 355.5H554L566.5 354H585.5L588.5 358.5L590.5 365V370L585.5 372L567.5 373H551H538L523 372L510.5 368L499.5 362Z" fill="#FEF7EF"/>
<path d="M515.5 351L479.5 351.5C479.5 351.5 493 356 493.5 356H497H504.5H513.5H527C527 356 527.924 357.595 529 358.5C530.076 359.405 530.062 359.379 531 360C532.604 361.061 534.5 361.5 536 362C537.5 362.5 539.5 362.5 539.5 362.5H544H549C549 362.5 554 362.5 555.5 362C557 361.5 560 361 561.5 360C563 359 565.5 357 565.5 357L568 355.5C568 355.5 574.5 355 577 355C579.5 355 581 355.5 582.5 356C584 356.5 583 356 585 357C587 358 587 359 587.5 360C588 361 588.5 362.5 588.5 363.5V367L586 370.5L581.5 371L574.5 371.5H565.5H548H539.5H532.5H527L522 370.5L517 369L511 366.5L504.5 363.5L499.5 360.5L493 356L487.5 354.5L490.5 357L499.5 363L508 367.5L516.5 371C516.5 371 521.5 372.5 524 373C526.5 373.5 536.5 373.5 536.5 373.5H551.5H568C568 373.5 587.5 373 589 372.5C590.5 372 599.5 370.5 600 370.5C600.5 370.5 600.5 369.5 600 369C599.5 368.5 596 368 596 368C596 368 593 367.5 592.5 367C592 366.5 592 365.5 592 364.5C592 363.5 591.5 361 591.5 361C591.5 361 590 357 590 356C590 355 591.5 355 592.5 355H600L599.5 354C599.5 354 599 353 598.5 352.5C598 352 597.449 351.563 596.5 351.5H592.5H558.5L515.5 351Z" fill="#3E2727"/>
<path d="M476 353.5L491.5 349.5C491.5 349.5 504.5 345.5 511 343.5C517.5 341.5 525.5 339.5 525.5 339.5L543 336C543 336 551 334.5 553 334C555 333.5 565.5 332 565.5 332C567.667 331.5 573.2 331 574 331C574.8 331 579 331 581 331H588C588 331 585 331 583.5 332.5C582 334 586 340.5 586 340.5L589.5 345.5C589.5 345.5 591.945 348.125 593.5 349.5C594.759 350.612 597 352 597 352" stroke="black" stroke-opacity="0.8"/>
<path d="M679.5 354L676.5 364L679.5 367.5L701.5 371.5H720L734 369L750 365.5L761.5 360L768.5 355L768 351.5L761.5 350H742H725L704 354H679.5Z" fill="#FEF7EF"/>
<path d="M676 356.5C675.5 359.5 672 366.5 672 366.5L679.5 366V363V360.5C679.5 359.5 680.5 358 681 357.5C681.5 357 683 356 684 355.5C685 355 689.271 354.5 689.271 354.5C689.271 354.5 693.5 354 694 354.5L695 355.5L697 357.5C697 357.5 699.5 360 701.5 360H704H707.5H712.5C714.5 360 717 359.5 717 359.5C717 359.5 720 359 722 358.5C724 358 726 356.5 726 356.5C726 356.5 730 354 730.5 353.5C731 353 731.5 351 732 350.5C732.5 350 733.5 350 733.5 350H736.5H744.5H758H762.5C762.5 350 763 350 765 350.5C767 351 766.5 352 766.5 352C766.5 352 766 353.5 765 355C764 356.5 761 358 761 358L755 361L748 364L743 365.5L737 367L731.215 368L727 368.5C727 368.5 724.5 369 721.5 369.5C718.5 370 719.5 370 716 370.5C712.5 371 711.5 371 708 371H702.5H699C697.5 371 693.5 370.5 693.5 370.5L687.5 369C687.5 369 683 367 681 366.5C679 366 674 366.5 674 366.5C674 366.5 677.5 367.5 679.5 368C681.5 368.5 684.604 370.015 688.5 371C692.259 371.785 694.471 372.083 698.5 372.5C702.486 372.611 704.733 372.661 709 372.5C711.992 372.42 713.742 372.311 717 372L731 370L742 368C746.397 366.893 748.826 366.18 753 364.5C756.123 363.051 757.818 362.164 760.662 360.677L761 360.5C762.937 359.527 764.521 358.603 768 356.5C768 356.5 775 351 777 349.5C779 348 784.5 347 784.5 347H768H753H738H723L705 348L684.5 349.5L670.5 351C670.5 351 676.5 353.5 676 356.5Z" fill="#3D2626"/>
<path d="M674.5 352C674.5 352 689.271 341.5 694.741 338.5C700.212 335.5 711.7 331.5 711.7 331.5C711.7 331.5 725.924 327 728.112 326.5C730.3 326 743.429 323 745.618 323C747.806 323 759.294 323 759.294 323C759.294 323 754.918 324 753.276 324.5C751.635 325 757.653 328.5 759.294 330C760.935 331.5 764.218 337 764.218 337L766.406 342L767.5 346" stroke="black" stroke-opacity="0.8"/>
<path d="M655.5 341L669.5 295L669 301.5L656.5 341L651.5 362L655.5 341Z" fill="#2C2B3D"/>
<path d="M650 379.5L651.5 362L650.5 380V393L651 424L651.5 447V455.5L652.5 458L653.5 461L652.5 465L649 470.5L645.5 475.5L641 483.5C641 483.5 644 476.5 645 475L649 469C649 469 651.5 464 651.5 462C651.5 460 650 458 650 456V450.5V442.5V429V392.5V379.5Z" fill="#2C2B3D"/>
</mask>
<g mask="url(#mask1_2196_120)">
<rect x="19" y="3" width="1285" height="1036" fill="#51FF00"/>
</g>
<path d="M477 467L464 465.5L456 486.5V552.5L477 539V467Z" fill="#2D2C36"/>
<path d="M769.5 476L752.5 469L749.5 504V583.5L770.5 570L773 515.5L769.5 476Z" fill="#1A1A1D"/>
<path d="M472 501.5V465.5L763.5 456V467.5V495.5L761.5 517.5L759.5 562L754 587.5L747.5 608.5L733 635.5L720.5 656L698 680.5L676 697.5L654 713.5L630 719.5L616.5 716.5L590.5 703.5L571.5 692.5L545 675.5L524.5 651.5L501 616L491 598.5L478.5 565.5L472 545.5V526V501.5Z" fill="#FFE0C8"/>
<path d="M516.5 687L471.5 592.5L516.5 509L559 473L692.5 466.5H760.5L752 509L749.5 523.5C749.5 523.5 746.5 540 738 569.5C729.5 599 723 621 723 621L707.5 672.5L698.5 720L588 725L516.5 687Z" fill="#4E3D47"/>
<path d="M471.5 536L467 466H759L754.5 484.5L744.5 519.5L730.5 552L714.5 586.5C714.5 586.5 702.5 606.5 695.5 614C688.5 621.5 668 632.5 663 636.5C658 640.5 626 652 615.5 654.5C605 657 576 653 559.5 650C543 647 520.5 636.5 520.5 636.5H503L483.5 650C479.5 647.167 471.5 640.5 471.5 636.5C471.5 632.5 468.5 613.5 467 604.5L471.5 536Z" fill="#4C2E39"/>
<g filter="url(#filter0_d_2196_120)">
<path d="M553 619C559.333 630.167 568.5 640.5 575.5 650C582.5 659.5 620 691.5 603.5 691.5C587 691.5 577.5 691.5 577.5 691.5M688 650C688 650 641.5 692.5 659 691.5C676.5 690.5 688 691.5 688 691.5" stroke="black" stroke-opacity="0.4" stroke-width="2" stroke-linecap="round" stroke-linejoin="round" shape-rendering="crispEdges"/>
</g>
<path d="M29 819.5L0 997.5L1206.5 999L1202.5 936C1198.66 890.374 1197.96 864.503 1191 819.5C1188.39 797.282 1186.13 784.906 1180.5 763C1176.72 751.286 1174.07 744.718 1167.5 733C1164.06 727.827 1164.96 727.32 1149.5 712C1140.85 703.295 1134.71 699.021 1122.5 692L1075 667.5L1015 638.5L972.5 617.5L921.5 595L886 579L849 562L817.5 545.5C805.871 537.509 799.823 532.221 789.5 522C785.628 516.798 784.195 516.063 778 504L769.5 476C770.289 487.203 771.445 492.136 769.5 508.5C767.09 531.675 766.194 536.459 764.512 545.434L764.5 545.5C761.8 561.442 759.241 570.042 753.5 585C748.197 599.445 744.685 607.687 738 622.5L720.5 649.5C710.005 664.994 703.729 671.707 692 681C670.217 695.018 654 704 650.5 705C647 706 634.902 710.135 612 705C602.147 701.37 600.489 702.362 568 681C554.41 671.3 546.839 665.73 534 654C522.153 640.23 518.582 634.084 511 622.5L480.5 568C474.349 555.061 470.694 547.984 467.5 532.5C465.165 521.232 463.964 514.396 463 496.5V468L402 541.5C385.118 556.434 380.556 563.94 346 582L144 673.5C118.019 688.414 103.352 698.659 77 720.5C53.3569 751.114 42.8302 772.786 29 819.5Z" fill="#2D2C36"/>
<path d="M302 638.5C303.617 617.625 304.2 604.97 312.5 599C316.185 594.706 339.48 582.419 367.5 569.5C385.32 560.487 393.526 549.419 409 532.5L463 468.5C462.216 481.849 461.255 490.681 463 497.5C464.927 532.914 469.703 538.026 475.5 558C479.17 566.165 481.405 570.89 488 581.5C500.993 605.967 506.67 614.503 517.5 632C530.141 650.646 533.786 652.578 542.5 661.5C557.542 673.933 564.499 679.13 574.5 685.5C590.012 695.486 595.768 698.201 606.5 703.5C629.785 710.367 630.481 707.791 640 707.5C652.226 705.457 657.118 702.734 666 698C666 698 683.85 688.5 691 683C698.15 677.5 710 664 710 664C698.092 688.702 691.415 701.735 679.5 715.5C663.085 740.953 651.86 753.798 628 774C595.334 801.805 574.393 815.421 535.5 834.5C507.386 849.549 490.301 853.869 459 859C410.386 861.033 393.823 852.062 358 842C315.121 817.201 314.992 805.469 306 788.5C299.069 755.768 296.068 737.347 297 704C297.809 678.219 299.573 663.996 302 638.5Z" fill="#1A1A1D" stroke="#1D1D23"/>
<path d="M419 343.5C419 343.5 424 364.5 426 370C428 375.5 441 397 442 400.5C443 404 455 447.5 455 447.5L449.5 444.5C449.5 444.5 433.5 434.5 430 430.5C426.5 426.5 420.5 418 419 415.5C417.5 413 410.5 398.5 409 394.5C407.5 390.5 405.5 385 403.5 379C401.5 373 401 355 401 355V337C401 337 402 330.5 405.5 328.5C409 326.5 411 326.5 413 328.5C415 330.5 419 343.5 419 343.5Z" fill="#FFE5CE"/>
<g filter="url(#filter1_d_2196_120)">
<path d="M407 341C406.5 341.5 404 351.5 404 351.5C404 351.5 405.5 349 406 348.5C406.5 348 407.5 346.5 408.5 346.5H411C412 346.5 413 348 413 348L414.5 350.5L417 356.5L420.5 366L419.5 362L416.5 353.5C416.5 353.5 414.5 347.5 414 346.5C413.5 345.5 411 342.5 411 342.5C411 342.5 409 340.5 408.5 340.5C408 340.5 407.5 340.5 407 341Z" fill="#2A2933"/>
</g>
<g filter="url(#filter2_d_2196_120)">
<path d="M429 398C429 398 426 398 425 400.5C424 403 424 413.5 424 413.5" stroke="#322A2E" stroke-width="0.5" stroke-linecap="round"/>
</g>
<path d="M795 338.529C793 342.529 788.5 360.529 788.5 360.529L777.5 399.529L769 443C769 443 782 427.529 788.5 416C795 404.471 799 392.5 799 392.5C799 392.5 806 378.5 806 373.5C806 368.5 808 356.029 808 356.029C808 356.029 808.5 338.029 808 335.529C807.5 333.029 805 329.529 803 329.029C801 328.529 797 334.529 795 338.529Z" fill="#FFE5CE"/>
<g filter="url(#filter3_d_2196_120)">
<path d="M793.7 360.091L792.5 366.667V376.061L793.7 367.606L794.3 363.848L794.9 361.03L796.1 357.273L797.3 354.455L799.1 350.697L801.5 346L800.9 346.939L798.5 350.697L795.5 355.394L793.7 360.091Z" fill="#29393C"/>
<path d="M792.5 377V376.061M792.5 376.061V366.667L793.7 360.091L795.5 355.394L798.5 350.697L800.9 346.939L801.5 346L799.1 350.697L797.3 354.455L796.1 357.273L794.9 361.03L794.3 363.848L793.7 367.606L792.5 376.061Z" stroke="black" stroke-width="0.5"/>
</g>
<g filter="url(#filter4_d_2196_120)">
<path d="M436.5 393.045L414.5 292.045L410 244.545C413.667 226.379 425 188.445 441 182.045C457 175.645 493 164.712 509 160.045C543 151.045 614.6 132.145 629 128.545C643.4 124.945 713.333 140.045 746.5 148.045L797 182.045L810.5 275.545L801 312.545L787.5 352.545L790 373.545L759 462.545C759 462.545 748 510.045 746.5 513.545C745 517.045 705 574.545 705 574.545L680 611.045C680 611.045 671.5 622.545 668 625.545C664.5 628.545 613 625.545 613 625.545C613 625.545 595.5 623.045 588.5 619.545C581.5 616.045 558.5 591.545 558.5 591.545L504.5 533.545L483 510.045L446.5 411.545L436.5 393.045Z" fill="#FFE5CE"/>
</g>
<g filter="url(#filter5_d_2196_120)">
<path d="M383 144.616C379 177.616 398.802 337.73 400.5 335.616C402.199 333.501 408.308 330.223 411 335.616L424.5 372.616C424.5 372.616 427 322.116 427 320.116C427 318.116 424 250.616 430 253.116C436 255.616 456 274.116 456 274.116C456 274.116 445.5 256.116 449 244.616C452.5 233.116 455.5 224.116 462.5 222.616C469.5 221.116 476 233.616 497 232.116C518 230.616 557 222.616 557 222.616C557 222.616 550 221.116 540.5 219.616C531 218.116 525.5 208.116 540.5 202.116C555.5 196.116 650.479 181.82 665.5 183.616C680.521 185.412 684.154 195.784 675.5 208.116C666.846 220.448 651 226.116 651 226.116C651 226.116 704 227.116 720 211.616C736 196.116 736 217.616 728 222.616C720 227.616 705.5 232.116 705.5 232.116C725.206 232.765 736.174 233.525 757.5 226.116C760.019 227.709 791.193 201.187 793 200.116C794.807 199.045 802.668 233.943 804.5 259.116C806.89 289.783 803.236 304.142 800 331.616L807 324.116C821.141 304.273 834.204 284.578 846 243.116C846 243.116 852.5 202.116 852.5 200.116C852.5 198.116 856.5 172.116 858.5 165.616C860.488 159.156 852.106 168.004 843.169 177.438L843 177.616C834 187.116 851.5 134.116 852.5 130.616C853.5 127.116 858.5 105.616 859 101.616C859.5 97.6158 841.5 105.116 823.5 99.1158C805.5 93.1158 826 80.1158 836 77.1158C846 74.1158 805 80.1158 797 81.6158C789 83.1158 764 62.1159 758 58.6158C752 55.1158 700.5 32.1158 697.5 31.1158C694.5 30.1158 656.5 21.6158 640 19.6158C623.5 17.6158 630.5 9.61583 640 5.11582C649.5 0.615816 620 4.61582 617 5.11582C614 5.61582 580.5 16.1158 579 17.1158C577.5 18.1158 543.954 20.9911 536 23.6158C536 23.6158 520 27.1158 501.5 36.6158C483 46.1158 496 24.1158 494 23.6158C492 23.1158 458.5 53.6158 458.5 53.6158C453.607 55.3348 387 111.616 383 144.616Z" fill="#2C2B3D"/>
</g>
<path d="M467 307.5C448.063 322.327 446.543 331.921 436.5 348C448.014 337.334 463 327.5 466.5 325.5C470 323.5 485.529 316.454 495 316H524C528.5 316 581.5 314.5 585.5 312.5C589.5 310.5 599 283 599 283C599 283 558.986 296.289 552.5 296.5C546.014 296.711 504 296.5 504 296.5C489.776 297.755 481.924 296.805 467 307.5Z" fill="#2C2B3D"/>
<path d="M648.5 305C647.5 301.5 654 285 654 285C654 285 669 293 676.5 293.5C684 294 701 293.5 701 293.5C710.554 291.727 726.5 289.5 729 289C731.5 288.5 747 286.5 749.5 287.5C752 288.5 766 294.5 768.5 296.5C771 298.5 784.5 306.5 785.5 310C786.5 313.5 789.5 326 789.5 326C789.5 326 771.5 314.5 768.5 312.5C765.5 310.5 747.5 305 741 305C734.5 305 719 309 714 310C709 311 669.5 312.5 665.5 312.5C661.5 312.5 649.5 308.5 648.5 305Z" fill="#2C2B3D"/>
<path d="M467 307.5C448.063 322.327 446.543 331.921 436.5 348C448.014 337.334 463 327.5 466.5 325.5C470 323.5 485.529 316.454 495 316H524C528.5 316 581.5 314.5 585.5 312.5C589.5 310.5 599 283 599 283C599 283 558.986 296.289 552.5 296.5C546.014 296.711 504 296.5 504 296.5C489.776 297.755 481.924 296.805 467 307.5Z" stroke="#2D2C3C"/>
<path d="M648.5 305C647.5 301.5 654 285 654 285C654 285 669 293 676.5 293.5C684 294 701 293.5 701 293.5C710.554 291.727 726.5 289.5 729 289C731.5 288.5 747 286.5 749.5 287.5C752 288.5 766 294.5 768.5 296.5C771 298.5 784.5 306.5 785.5 310C786.5 313.5 789.5 326 789.5 326C789.5 326 771.5 314.5 768.5 312.5C765.5 310.5 747.5 305 741 305C734.5 305 719 309 714 310C709 311 669.5 312.5 665.5 312.5C661.5 312.5 649.5 308.5 648.5 305Z" stroke="#2D2C3C"/>
<path d="M607.5 270C623.071 278.41 619.97 288.104 613 306" stroke="#2C2B3D" stroke-linecap="round"/>
<g filter="url(#filter6_d_2196_120)">
<path d="M438.5 381C436.5 379.5 419.5 313 419.5 313L425.5 368L455 448.5C455 448.5 458.263 446.43 457.5 441.5C456.926 437.789 453.986 432.808 453 428.5C451.009 419.8 447.678 411.929 450 411C455 409 457 419 459 423C461 427 467.5 454 473 462.5C478.5 471 491.5 473.5 497.5 474C500.394 474.241 510.734 475.694 521 476C532.016 476.328 542.947 476 544.5 476C547.5 476 576 473 579 471.5C582 470 589 466 592.5 460.5C596 455 604 423.5 605.5 416.5C607 409.5 629 409.5 631 416.5C631.769 419.192 634.389 436.672 636.5 444.5C639.879 457.029 648.076 461.23 653 464C661 468.5 703.5 468 703.5 468C703.5 468 724.352 467.976 740.5 465C750.567 463.145 757.388 457.496 759.5 455C765 448.5 782 403.5 782 403.5C782 403.5 791.5 376.5 792.5 374C793.5 371.5 790 362.5 789 360.5C788 358.5 792.5 344.5 792.5 341.5C792.5 338.5 800.5 318.5 800.5 318.5C800.5 318.5 790.5 330.5 789 335C787.5 339.5 782.5 366.5 780.5 370C779.893 371.063 768.47 371.622 750 372.5C738.64 373.04 725.871 373.53 712.5 374C699.36 374.462 687.121 375.017 675.5 375.412C654.855 376.113 639.5 379 638 382C636.5 385 634.5 389 631 391C627.5 393 606.5 392.5 602.5 391C598.5 389.5 600 386.5 596.5 384C593 381.5 516 384 513.5 384C511 384 440.5 382.5 438.5 381Z" fill="#2C2B3D"/>
<path d="M490.5 394.5C489 394.5 476.5 397 475.5 397.5L475.5 397.5C474.5 398 469.5 400.5 467.5 403C465.5 405.5 467.5 417 467.5 417L471 433L475.5 447C475.5 447 479.5 457.5 481.5 459C483.5 460.5 488.5 463 493.5 464C498.5 465 513.5 467 517 467H537C537 467 557.5 466.5 561.5 465.5C565.5 464.5 578 462 580.5 460C583 458 586.5 453 588 450C589.5 447 593 433.5 593 430C593 426.5 594 418 593.5 410.5C593 403 592.5 401.5 592 399.5C591.5 397.5 585 394.5 582 394.5H565.5H540H508H490.5Z" fill="url(#paint4_linear_2196_120)"/>
<path d="M647.5 392.5C646 395 645 402.5 645 402.5C645 402.5 644 412.5 644 415.5V427.5C644.313 432.34 644.549 434.17 645 437C645.606 440.013 645.933 441.348 646.5 443C647.934 446.388 648.746 448.646 651 451C653.161 453.113 654.369 454.199 656.5 455.5C659.389 457.1 661.022 457.789 664 458L677.5 459L690.5 459.5H703L719.5 459L732 458L738.5 457C738.5 457 745.5 455 746.5 454.5C747.5 454 752.5 450.5 753.5 449.5C754.5 448.5 758 442.5 758 442.5L762 432.5L766.5 418.5L769.5 408L772 396V389.5C772 388 771 386 771 386C771 386 769 384 767 383C765 382 756 382 756 382L731.5 382L708.5 383L692 383.5L670.5 385C670.5 385 654.5 387 653.5 387.5C652.5 388 649 390 647.5 392.5Z" fill="url(#paint5_linear_2196_120)"/>
</g>
<path d="M604.393 526.797L604.365 526.805L604.338 526.814L586.274 533.097C586.243 533.103 586.201 533.111 586.148 533.121C586.023 533.146 585.838 533.182 585.604 533.227C585.137 533.316 584.474 533.44 583.69 533.583C582.121 533.869 580.076 534.224 578.161 534.509C577.943 534.541 577.727 534.57 577.515 534.6C578.858 534.155 580.468 533.647 582.282 533.096C586.836 531.711 592.641 530.047 598.641 528.363C602.098 527.393 605.625 526.416 609.013 525.481L604.393 526.797ZM625.539 520.934C625.769 520.87 625.994 520.808 626.211 520.748L628.444 520.121C629.477 519.827 630.837 519.563 632.447 519.325L625.539 520.934Z" stroke="black" stroke-width="2"/>
<g filter="url(#filter7_i_2196_120)">
<path d="M480.5 362L470 354L474 353H490.5L506.5 354C510.167 354.5 517.8 355.5 519 355.5H535L547.5 354H566.5L569.5 358.5L571.5 365V370L566.5 372L548.5 373H532H519L504 372L491.5 368L480.5 362Z" fill="#FEF7EF"/>
<path d="M496.5 351L460.5 351.5C460.5 351.5 474 356 474.5 356H478H485.5H494.5H508C508 356 508.924 357.595 510 358.5C511.076 359.405 511.062 359.379 512 360C513.604 361.061 515.5 361.5 517 362C518.5 362.5 520.5 362.5 520.5 362.5H525H530C530 362.5 535 362.5 536.5 362C538 361.5 541 361 542.5 360C544 359 546.5 357 546.5 357L549 355.5C549 355.5 555.5 355 558 355C560.5 355 562 355.5 563.5 356C565 356.5 564 356 566 357C568 358 568 359 568.5 360C569 361 569.5 362.5 569.5 363.5V367L567 370.5L562.5 371L555.5 371.5H546.5H529H520.5H513.5H508L503 370.5L498 369L492 366.5L485.5 363.5L480.5 360.5L474 356L468.5 354.5L471.5 357L480.5 363L489 367.5L497.5 371C497.5 371 502.5 372.5 505 373C507.5 373.5 517.5 373.5 517.5 373.5H532.5H549C549 373.5 568.5 373 570 372.5C571.5 372 580.5 370.5 581 370.5C581.5 370.5 581.5 369.5 581 369C580.5 368.5 577 368 577 368C577 368 574 367.5 573.5 367C573 366.5 573 365.5 573 364.5C573 363.5 572.5 361 572.5 361C572.5 361 571 357 571 356C571 355 572.5 355 573.5 355H581L580.5 354C580.5 354 580 353 579.5 352.5C579 352 578.449 351.563 577.5 351.5H573.5H539.5L496.5 351Z" fill="#3E2727"/>
</g>
<path d="M457 353.5L472.5 349.5C472.5 349.5 485.5 345.5 492 343.5C498.5 341.5 506.5 339.5 506.5 339.5L524 336C524 336 532 334.5 534 334C536 333.5 546.5 332 546.5 332C548.667 331.5 554.2 331 555 331C555.8 331 560 331 562 331H569C569 331 566 331 564.5 332.5C563 334 567 340.5 567 340.5L570.5 345.5C570.5 345.5 572.945 348.125 574.5 349.5C575.759 350.612 578 352 578 352" stroke="black" stroke-opacity="0.8"/>
<path d="M660.5 354L657.5 364L660.5 367.5L682.5 371.5H701L715 369L731 365.5L742.5 360L749.5 355L749 351.5L742.5 350H723H706L685 354H660.5Z" fill="#FEF7EF"/>
<g filter="url(#filter8_i_2196_120)">
<path d="M657 356.5C656.5 359.5 653 366.5 653 366.5L660.5 366V363V360.5C660.5 359.5 661.5 358 662 357.5C662.5 357 664 356 665 355.5C666 355 670.271 354.5 670.271 354.5C670.271 354.5 674.5 354 675 354.5L676 355.5L678 357.5C678 357.5 680.5 360 682.5 360H685H688.5H693.5C695.5 360 698 359.5 698 359.5C698 359.5 701 359 703 358.5C705 358 707 356.5 707 356.5C707 356.5 711 354 711.5 353.5C712 353 712.5 351 713 350.5C713.5 350 714.5 350 714.5 350H717.5H725.5H739H743.5C743.5 350 744 350 746 350.5C748 351 747.5 352 747.5 352C747.5 352 747 353.5 746 355C745 356.5 742 358 742 358L736 361L729 364L724 365.5L718 367L712.215 368L708 368.5C708 368.5 705.5 369 702.5 369.5C699.5 370 700.5 370 697 370.5C693.5 371 692.5 371 689 371H683.5H680C678.5 371 674.5 370.5 674.5 370.5L668.5 369C668.5 369 664 367 662 366.5C660 366 655 366.5 655 366.5C655 366.5 658.5 367.5 660.5 368C662.5 368.5 665.604 370.015 669.5 371C673.259 371.785 675.471 372.083 679.5 372.5C683.486 372.611 685.733 372.661 690 372.5C692.992 372.42 694.742 372.311 698 372L712 370L723 368C727.397 366.893 729.826 366.18 734 364.5C737.123 363.051 738.818 362.164 741.662 360.677L742 360.5C743.937 359.527 745.521 358.603 749 356.5C749 356.5 756 351 758 349.5C760 348 765.5 347 765.5 347H749H734H719H704L686 348L665.5 349.5L651.5 351C651.5 351 657.5 353.5 657 356.5Z" fill="#3D2626"/>
</g>
<path d="M655.5 352C655.5 352 670.271 341.5 675.741 338.5C681.212 335.5 692.7 331.5 692.7 331.5C692.7 331.5 706.924 327 709.112 326.5C711.3 326 724.429 323 726.618 323C728.806 323 740.294 323 740.294 323C740.294 323 735.918 324 734.276 324.5C732.635 325 738.653 328.5 740.294 330C741.935 331.5 745.218 337 745.218 337L747.406 342L748.5 346" stroke="black" stroke-opacity="0.8"/>
<path d="M636.5 341L650.5 295L650 301.5L637.5 341L632.5 362L636.5 341Z" fill="#2C2B3D"/>
<path d="M631 379.5L632.5 362L631.5 380V393L632 424L632.5 447V455.5L633.5 458L634.5 461L633.5 465L630 470.5L626.5 475.5L622 483.5C622 483.5 625 476.5 626 475L630 469C630 469 632.5 464 632.5 462C632.5 460 631 458 631 456V450.5V442.5V429V392.5V379.5Z" fill="#2C2B3D"/>
<defs>
<filter id="filter0_d_2196_120" x="545" y="611" width="151" height="88.5168" filterUnits="userSpaceOnUse" color-interpolation-filters="sRGB">
<feFlood flood-opacity="0" result="BackgroundImageFix"/>
<feColorMatrix in="SourceAlpha" type="matrix" values="0 0 0 0 0 0 0 0 0 0 0 0 0 0 0 0 0 0 127 0" result="hardAlpha"/>
<feOffset/>
<feGaussianBlur stdDeviation="3.5"/>
<feComposite in2="hardAlpha" operator="out"/>
<feColorMatrix type="matrix" values="0 0 0 0 0 0 0 0 0 0 0 0 0 0 0 0 0 0 0.25 0"/>
<feBlend mode="normal" in2="BackgroundImageFix" result="effect1_dropShadow_2196_120"/>
<feBlend mode="normal" in="SourceGraphic" in2="effect1_dropShadow_2196_120" result="shape"/>
</filter>
<filter id="filter1_d_2196_120" x="399" y="336.5" width="24.5" height="33.5" filterUnits="userSpaceOnUse" color-interpolation-filters="sRGB">
<feFlood flood-opacity="0" result="BackgroundImageFix"/>
<feColorMatrix in="SourceAlpha" type="matrix" values="0 0 0 0 0 0 0 0 0 0 0 0 0 0 0 0 0 0 127 0" result="hardAlpha"/>
<feOffset dx="-1"/>
<feGaussianBlur stdDeviation="2"/>
<feComposite in2="hardAlpha" operator="out"/>
<feColorMatrix type="matrix" values="0 0 0 0 0 0 0 0 0 0 0 0 0 0 0 0 0 0 0.6 0"/>
<feBlend mode="normal" in2="BackgroundImageFix" result="effect1_dropShadow_2196_120"/>
<feBlend mode="normal" in="SourceGraphic" in2="effect1_dropShadow_2196_120" result="shape"/>
</filter>
<filter id="filter2_d_2196_120" x="421.75" y="396.75" width="7.5" height="18" filterUnits="userSpaceOnUse" color-interpolation-filters="sRGB">
<feFlood flood-opacity="0" result="BackgroundImageFix"/>
<feColorMatrix in="SourceAlpha" type="matrix" values="0 0 0 0 0 0 0 0 0 0 0 0 0 0 0 0 0 0 127 0" result="hardAlpha"/>
<feOffset dx="-1"/>
<feGaussianBlur stdDeviation="0.5"/>
<feComposite in2="hardAlpha" operator="out"/>
<feColorMatrix type="matrix" values="0 0 0 0 0 0 0 0 0 0 0 0 0 0 0 0 0 0 0.8 0"/>
<feBlend mode="normal" in2="BackgroundImageFix" result="effect1_dropShadow_2196_120"/>
<feBlend mode="normal" in="SourceGraphic" in2="effect1_dropShadow_2196_120" result="shape"/>
</filter>
<filter id="filter3_d_2196_120" x="789.25" y="341.865" width="17.4727" height="39.1345" filterUnits="userSpaceOnUse" color-interpolation-filters="sRGB">
<feFlood flood-opacity="0" result="BackgroundImageFix"/>
<feColorMatrix in="SourceAlpha" type="matrix" values="0 0 0 0 0 0 0 0 0 0 0 0 0 0 0 0 0 0 127 0" result="hardAlpha"/>
<feOffset dx="1"/>
<feGaussianBlur stdDeviation="2"/>
<feComposite in2="hardAlpha" operator="out"/>
<feColorMatrix type="matrix" values="0 0 0 0 0 0 0 0 0 0 0 0 0 0 0 0 0 0 0.6 0"/>
<feBlend mode="normal" in2="BackgroundImageFix" result="effect1_dropShadow_2196_120"/>
<feBlend mode="normal" in="SourceGraphic" in2="effect1_dropShadow_2196_120" result="shape"/>
</filter>
<filter id="filter4_d_2196_120" x="407" y="128" width="408.5" height="506.879" filterUnits="userSpaceOnUse" color-interpolation-filters="sRGB">
<feFlood flood-opacity="0" result="BackgroundImageFix"/>
<feColorMatrix in="SourceAlpha" type="matrix" values="0 0 0 0 0 0 0 0 0 0 0 0 0 0 0 0 0 0 127 0" result="hardAlpha"/>
<feOffset dx="1" dy="4"/>
<feGaussianBlur stdDeviation="2"/>
<feComposite in2="hardAlpha" operator="out"/>
<feColorMatrix type="matrix" values="0 0 0 0 0 0 0 0 0 0 0 0 0 0 0 0 0 0 0.7 0"/>
<feBlend mode="normal" in2="BackgroundImageFix" result="effect1_dropShadow_2196_120"/>
<feBlend mode="normal" in="SourceGraphic" in2="effect1_dropShadow_2196_120" result="shape"/>
</filter>
<filter id="filter5_d_2196_120" x="375.468" y="0" width="490.542" height="383.616" filterUnits="userSpaceOnUse" color-interpolation-filters="sRGB">
<feFlood flood-opacity="0" result="BackgroundImageFix"/>
<feColorMatrix in="SourceAlpha" type="matrix" values="0 0 0 0 0 0 0 0 0 0 0 0 0 0 0 0 0 0 127 0" result="hardAlpha"/>
<feOffset dy="4"/>
<feGaussianBlur stdDeviation="3.5"/>
<feComposite in2="hardAlpha" operator="out"/>
<feColorMatrix type="matrix" values="0 0 0 0 0 0 0 0 0 0 0 0 0 0 0 0 0 0 0.4 0"/>
<feBlend mode="normal" in2="BackgroundImageFix" result="effect1_dropShadow_2196_120"/>
<feBlend mode="normal" in="SourceGraphic" in2="effect1_dropShadow_2196_120" result="shape"/>
</filter>
<filter id="filter6_d_2196_120" x="407.5" y="305" width="405" height="187.146" filterUnits="userSpaceOnUse" color-interpolation-filters="sRGB">
<feFlood flood-opacity="0" result="BackgroundImageFix"/>
<feColorMatrix in="SourceAlpha" type="matrix" values="0 0 0 0 0 0 0 0 0 0 0 0 0 0 0 0 0 0 127 0" result="hardAlpha"/>
<feOffset dy="4"/>
<feGaussianBlur stdDeviation="6"/>
<feComposite in2="hardAlpha" operator="out"/>
<feColorMatrix type="matrix" values="0 0 0 0 0 0 0 0 0 0 0 0 0 0 0 0 0 0 0.4 0"/>
<feBlend mode="normal" in2="BackgroundImageFix" result="effect1_dropShadow_2196_120"/>
<feBlend mode="normal" in="SourceGraphic" in2="effect1_dropShadow_2196_120" result="shape"/>
</filter>
<filter id="filter7_i_2196_120" x="460.5" y="351" width="120.875" height="26.5" filterUnits="userSpaceOnUse" color-interpolation-filters="sRGB">
<feFlood flood-opacity="0" result="BackgroundImageFix"/>
<feBlend mode="normal" in="SourceGraphic" in2="BackgroundImageFix" result="shape"/>
<feColorMatrix in="SourceAlpha" type="matrix" values="0 0 0 0 0 0 0 0 0 0 0 0 0 0 0 0 0 0 127 0" result="hardAlpha"/>
<feOffset dy="4"/>
<feGaussianBlur stdDeviation="2"/>
<feComposite in2="hardAlpha" operator="arithmetic" k2="-1" k3="1"/>
<feColorMatrix type="matrix" values="0 0 0 0 0 0 0 0 0 0 0 0 0 0 0 0 0 0 0.4 0"/>
<feBlend mode="normal" in2="shape" result="effect1_innerShadow_2196_120"/>
</filter>
<filter id="filter8_i_2196_120" x="651.5" y="347" width="114" height="29.603" filterUnits="userSpaceOnUse" color-interpolation-filters="sRGB">
<feFlood flood-opacity="0" result="BackgroundImageFix"/>
<feBlend mode="normal" in="SourceGraphic" in2="BackgroundImageFix" result="shape"/>
<feColorMatrix in="SourceAlpha" type="matrix" values="0 0 0 0 0 0 0 0 0 0 0 0 0 0 0 0 0 0 127 0" result="hardAlpha"/>
<feOffset dy="4"/>
<feGaussianBlur stdDeviation="2"/>
<feComposite in2="hardAlpha" operator="arithmetic" k2="-1" k3="1"/>
<feColorMatrix type="matrix" values="0 0 0 0 0 0 0 0 0 0 0 0 0 0 0 0 0 0 0.4 0"/>
<feBlend mode="normal" in2="shape" result="effect1_innerShadow_2196_120"/>
</filter>
<linearGradient id="paint0_linear_2196_120" x1="581.806" y1="394.5" x2="581.806" y2="467" gradientUnits="userSpaceOnUse">
<stop stop-color="#504354"/>
<stop offset="1" stop-color="#6B4855"/>
</linearGradient>
<linearGradient id="paint1_linear_2196_120" x1="760.5" y1="381" x2="760.5" y2="459.5" gradientUnits="userSpaceOnUse">
<stop stop-color="#504354"/>
<stop offset="1" stop-color="#6A4855"/>
</linearGradient>
<linearGradient id="paint2_linear_2196_120" x1="548.806" y1="394.5" x2="548.806" y2="467" gradientUnits="userSpaceOnUse">
<stop stop-color="#504354"/>
<stop offset="1" stop-color="#6B4855"/>
</linearGradient>
<linearGradient id="paint3_linear_2196_120" x1="727.5" y1="381" x2="727.5" y2="459.5" gradientUnits="userSpaceOnUse">
<stop stop-color="#504354"/>
<stop offset="1" stop-color="#6A4855"/>
</linearGradient>
<linearGradient id="paint4_linear_2196_120" x1="529.806" y1="394.5" x2="529.806" y2="467" gradientUnits="userSpaceOnUse">
<stop stop-color="#C8F030"/>
<stop offset="1" stop-color="#6B4855"/>
</linearGradient>
<linearGradient id="paint5_linear_2196_120" x1="708.5" y1="381" x2="708.5" y2="459.5" gradientUnits="userSpaceOnUse">
<stop stop-color="#C8F030"/>
<stop offset="1" stop-color="#6A4855"/>
</linearGradient>
</defs>
</svg>
