<svg width="365" height="364" viewBox="0 0 365 364" fill="none" xmlns="http://www.w3.org/2000/svg">
<path d="M1.92884 0L45.7131 55.2508C43.625 92.4852 27.5159 120.99 5.56858 147.227L0.422363 145.879V160.683L2.3817 161.198C14.1438 195.73 9.34549 230.795 3.7763 267.168L0.423131 268.736V284.544L7.45742 281.254C12.4504 289.458 17.923 301.979 22.0624 312.924C24.5973 319.64 26.9615 326.42 29.1526 333.257L0.423131 362.137V363.999H18.769L40.6458 342.007C47.749 341.729 72.6526 340.879 104.016 341.433C139.834 342.065 182.643 344.728 210.565 351.905L214.457 364H229.5L223.807 346.308C251.347 314.501 278.911 284.605 324.75 267.889L364.422 283.587V268.187L331.486 255.154C326.602 225.109 341.26 196.408 354.949 165.746L364.422 163.766V149.136L359.577 150.15L355.401 148.002C312.423 125.91 296.909 88.2401 283.909 46.3177L317.765 0H300.026L270.449 40.4665C225.796 41.4274 184.263 38.5792 152.103 11.5093L150.36 0H135.878L138.052 14.3675C117.259 36.5815 93.9432 51.113 57.9135 47.5897L20.1981 0H1.9273H1.92884ZM155.118 31.42C186.234 51.5758 222.93 55.093 259.907 54.8907L234.513 89.6332C206.477 89.9366 180.985 87.3083 161.071 70.7539L155.118 31.42ZM140.686 31.7571L147.038 73.7293C133.387 87.9941 118.461 96.8552 94.9363 94.3066L69.5914 62.325C99.1637 61.758 121.972 49.1881 140.685 31.7571H140.686ZM273.498 60.5626C285.402 96.5518 301.888 131.588 338.285 154.6L298.617 162.891L297.992 162.572C269.433 147.902 259.338 123.002 250.534 94.5043L249.985 92.7304L273.496 60.5626H273.498ZM58.3771 71.2275L84.7312 104.482C82.7979 127.15 72.9277 144.833 59.3372 161.344L20.7145 151.204C38.8857 128.389 53.388 102.628 58.3779 71.2267L58.3771 71.2275ZM164.005 90.1466C182.346 100.64 203.123 103.48 224.083 103.9L198.865 138.403C187.327 133.526 178.837 124.799 169.31 115.166L167.515 113.35L164.004 90.1473L164.005 90.1466ZM149.616 90.7672L153.901 119.085C145.337 124.832 135.177 128.395 123.981 130.956L106.432 108.813C123.834 107.744 137.922 100.629 149.616 90.7672ZM239.56 106.991C247.028 129.332 257.296 151.448 278.317 167.136L235.462 176.093C225.503 167.525 220.154 157.14 214.653 145.527L213.374 142.822L239.56 106.991ZM96.704 119.591L111.372 138.099L111.312 138.644C109.833 151.95 104.51 161.348 98.5538 171.641L74.3889 165.297C84.5128 151.997 92.7332 137.077 96.7025 119.591H96.704ZM156.223 134.421L160.829 164.874C158.101 165.395 155.457 166.292 152.975 167.54L133.683 143.198C141.491 141.091 149.108 138.336 156.222 134.421L156.223 134.421ZM171.058 136.752C176.693 141.793 182.95 146.501 190.331 150.078L178.198 166.677C177.293 166.295 176.371 165.958 175.434 165.667L171.058 136.752L171.058 136.752ZM122.975 152.74L142.062 176.823C140.836 178.517 139.789 180.332 138.936 182.241L112.949 175.42C116.746 168.71 120.481 161.433 122.975 152.74ZM203.834 155.868C207.758 163.848 212.343 172.032 218.894 179.555L195.03 184.542C193.831 181.131 192.031 177.962 189.715 175.186L203.834 155.868ZM18.5736 165.449L56.0231 175.28C63.0934 196.9 60.4636 219.019 56.9427 242.289L19.3406 259.884C23.8999 229.12 27.2247 197.499 18.5736 165.449ZM337.448 169.405C326.005 194.412 314.372 220.54 316.427 249.196L282.91 235.934C280.152 216.765 289.635 198.046 298.791 177.485L337.449 169.405L337.448 169.405ZM71.8794 179.443L93.039 184.996L93.4696 186.069C98.1438 197.665 97.5944 210.415 95.6918 224.159L72.4602 235.028C74.923 217.012 76.2732 198.391 71.8794 179.443ZM281.295 181.141C274.366 196.326 267.658 212.407 268.076 230.065L240.04 218.972C240.037 208.897 241.109 201.47 247.029 192.98L250.845 187.506L281.295 181.141ZM109.376 189.285L136.377 196.375C136.543 199.101 137.078 201.793 137.97 204.375L110.943 217.02C111.748 207.902 111.653 198.593 109.376 189.285ZM231.335 191.584C227.791 198.812 226.446 206.059 226.011 213.421L195.914 201.513C196.117 200.651 196.274 199.772 196.404 198.885L231.334 191.584H231.335ZM189.347 214.313L217.318 225.38C210.491 228.89 204.05 233.454 198.409 237.763C195.836 239.73 193.31 241.76 190.834 243.849L183.093 219.79C185.423 218.258 187.527 216.413 189.347 214.313H189.347ZM144.812 216.983L115.956 245.991C113.996 241.24 111.345 237.45 108.609 234.317L108.677 233.891L144.809 216.983H144.812ZM158.397 223.628C162.036 224.644 165.833 224.97 169.592 224.589L177.617 249.524C167.415 249.401 148.795 249.582 130.344 251.83L158.397 223.629L158.397 223.628ZM237.695 233.444L257.13 241.132C234.601 252.565 218.528 268.638 204.064 284.963L195.602 258.665C198.325 256.233 202.291 252.819 207.103 249.143C215.854 242.456 227.186 235.58 234.447 234.103L237.695 233.444ZM94.7884 240.39L95.9508 241.558C100.432 246.06 103.593 249.453 104.551 257.458L80.6868 281.449C80.4186 279.709 80.1213 277.901 79.7673 275.976C78.2271 267.585 76.359 258.396 72.6219 250.763L94.7884 240.391V240.39ZM275.571 248.43L305.622 260.321C267.751 277.562 242.088 303.756 218.69 330.411L209.161 300.798C227.631 279.466 245.692 259.714 275.572 248.431L275.571 248.43ZM59.4958 256.903C61.7962 262.142 64.2635 270.826 65.6842 278.562C66.8964 285.16 67.5998 290.884 67.9676 294.232L40.4726 321.875C38.886 317.173 37.2127 312.501 35.4536 307.86C31.3357 296.967 26.2638 284.863 20.4272 275.187L59.4958 256.903ZM175.097 263.913C178.137 263.908 180.318 263.936 182.261 263.962L190.227 288.713C170.107 285.533 145.299 285.502 123.519 286.272C111.584 286.694 102.06 287.289 94.5102 287.855L112.983 269.283L113.711 269.106C131.907 264.67 159.58 263.937 175.097 263.913ZM142.766 300.226C161.865 300.185 181.36 301.196 195.191 304.136L205.48 336.11C175.82 329.804 137.295 327.699 104.268 327.116C83.4086 326.746 66.5393 326.972 55.3266 327.248L78.9275 303.522C84.8775 302.942 102.459 301.345 124.024 300.583C130.078 300.369 136.399 300.238 142.766 300.225L142.766 300.226Z" fill="white"/>
</svg>
